<?xml version="1.0" encoding="utf-8"?>
<svg xmlns="http://www.w3.org/2000/svg" width="614" height="640">
  <path fill="none" fill-opacity="0" stroke="#CEBB9E" stroke-width=".3" d="M267 45c6.1-.27 12.67-1.2 18-3-6.13.24-12.61 1.24-18 3Z"/>
  <path fill="none" fill-opacity="0" stroke="#050404" stroke-width=".3" d="M267 45c-4.88-.06-9.08 2.36-14 2-4.08 2.34-9.5 2.98-14 5-15.97 4.3-34.1 9.32-50 15-3.34 1.63-7.14 4.02-11 5-27.6 9.2-22.78 37.77-34 57-2.42 19.99-35.59 49.1-9 63-10.08 17.17-16.36 36.6-24 55-.32 3.54-2.27 7.6 0 11 2.6 5.4 10.5 7.41 15 9-.73 2.03-3.19 2.96-4 5-.77 3.5 1.86 9.02-2 11 2.13 5.69 6.72 12.52 14 11 1.72 4.09 5.54 7.22 9 10-4.62 4.03-2.72 10.52-6 15-2.4 4.82-5.02 9.79-8 14-.03 4.34-3.3 6.97-5 11 .37 3.25 3.37 8.26 2 11-.57 7.13-1.94 14.02-3 21-1.06 8.5 2.61 15.92 8 22 6.77 10.72 19.72 16.46 32 17 3.34-.32 7.07.84 10-1 7.09 3.53 12.24-2.22 19-2 1.13-3.21 3.79-5.81 7-7 1.46-5.21 8.22-2.73 12-5 4.11-.56 3.99-5.25 7-7 2.14 3.89 2.77 8.88 5 13-1.36.42-2.33 1.8-3 3-4.51 5.4-11.76 9.8-14 17 .01 3.27-2.36 6.22-5 8-1.57 4.32-1.96 9.74-5 13-4.6 13.18-5.3 35.92 16 30 21.51-4.87 47.31.02 70-3 8.12-.94 15.7-3.87 24-4 3.37-1.48 7.98-1.66 12-2 40.94-12.46 81.39-32.57 125-39 2.1-2.08 6.15-.5 9-1 12.35-3.3 24.2-8.24 37-10 4.19-2.02 8.93-4.88 14-5 40.06-2.76 6.31-21.21-15-23 .12-2.35-2.29-3.81-4-5-2.74-2.52-6.67-4.96-8-8-8.11-7.85-15.93-9.56-26-5-1.91-10-7.14-21.68-20-18-3.6 1.59-10.47 1.71-14 0-3.6-12-8.99-22.84-13-35-2.08-3.6-2.19-7.79-2-12-16.25-45.16 36.48-61.73 47-98 1.2-10.96 1.85-23.06 0-34 .04-31.43-25.19-54.33-30-84-2.03-4.03-3.98-7.98-6-12 0 0 .22-.64 0-1-3.13-2.41-5.3-6.07-8-9-14.96-15.54-36.26-22.24-57-25-5.64-1.69-12.87.13-18-2h-44c-5.33 1.8-11.9 2.73-18 3m146 68c-6.95-36.53-55.1-46.54-85-64 25.9 22.67 69.87 26.72 84 63-4.18 1.08-11.64-5.5-13 1-8.88-.92-23.61-10.99-29 0-6.72-1.08-12.82-4.59-20-4-24.48 7.05-54.98 8.16-83 5-.54 2.68.92 4.78 2 7-10.05 2.21-40.32-14.07-29 4-24.14-6.7-47.66-37.34-74-36 23.04 5.84 42.13 23.8 63 35-29.15 3.21-45.19-22.08-72.23-24.77C184.45 55.71 249.12 53.82 297 45c29.22-3.06 55.76 4.95 80.23 17.77C393.82 70.69 418.91 102.5 413 113m6-8c-15.16-26.01-35.18-49.53-66-55 30.06-2.16 61.78 25.39 66 55m-238 18c1.75 1.3 5.44.74 5 4-3.02-1.96-7.96-.85-10-4-7.71-5.11-20.76-10.94-21-20 26.47.75 52.64 22.63 59 48-11.94-18.74-33.75-33.4-53-43 4.97 7.47 13.64 10.59 20 15m-28 247c.6-1.82 2.56-2.15 4-3 21.65-14.12 22.05-43.71 15-64 31.73 13.18 44.55-17.47 51-38-.32-3.67-1.27-6.68 1-10 .02 17.98 6.05 38.64 20 49-9.03-16.18-25.92-43.85-10-61-.73 14.22 17.84 36.25 30 34-12.6-7-34.88-25.06-23-41 8.52 6.43 15.61 15.77 26 19-6.74-7.98-31.42-21.29-12-30-.95 18.49 44.24 20.75 16 14-22.62-21.14-9.57-62.41-27.07-90.08-7.7-18.83 8.6-33.33 28.07-24.92.54-2.68-.92-4.78-2-7 14.22 1.39 28.19 3.94 43 3 6.86-11.52 34.99 3.52 41-8 7.88 2.18 14.61 4.59 23 5 3.68-12.16 30.18 4.46 44-2 31.06 43.56 35.61 108.33-15 142-29.61-1.35-62.74 7.45-95 5-2.89-24.52 22.92-58.01.75-85.75-18.25-22.1-68.11 12.12-33.75 32.75-8.85-.34-9.77-11.13-18-12 4.34 7.03 13.14 17.93 22 13 1.48 6.45 1.14 13.37 2 20-10.03-1.87-13.85-12.63-20-18 1.71 8.99 10.28 20.43 20 20-.97 13.83 4.63 25.91 11 37-9.72-3.87-10.84-22.9-23-20 9.46 10.99 24.34 21.68 28 36-3.63-.3-10.91-6.03-12 0 4.12.15 7.68 2.54 12 2 .08 7.87-2.72 16.32 0 24-6.69-3.31-12.88-12.06-22-8 7.37 3.21 15.59 5.73 21 13-.64 14.89-10.12 25.41-25 22 3.56 4.27 11.46 3.89 16 1-.28 13.58-21.85 24.27-35 20-3.07 7.22 9.39 1.88 12 5-12.51 5.22-26.34 15.37-39 8 .74 2.73 4.42 4.63 7 6-4.95 7.52-17.19 7.88-22 17-2.61-1.47-4.7-5.84-8-3 .74 3 5.31 2.61 5 6-4.19 0-8.54-.6-12 2-2.53-2.7-3.24-8.13-8-7 .71 3.89 5.66 5.89 6 10-9.47 13.89-30.26 8.89-38 1 .96 2.91 3.87 4.8 4 8-10.17 1.47-17.89-9.22-19-18-8.03.05-.34 6.43 0 10-14.63-6.46-19.36-24.07-16-39 6.79.15 7.06 12.36 15 11-.13-8.11 6.23-5.72 11-6m69-244c4.77-.09 10.09.2 14 2h4c-5.88 36.15 29.72 73.18 5 105-5.23-.46-6.43.83-11-2 .89 2.93 1.11 6.04 2 9-11.88 1.73-18.21 21.98-21 34-4.98-9.96-17.66-19.74-29-13-2.94-7.23-9.12-.84-2 2-6.87 5.76-5.3 17.9 5 17-.39-18.88 12.13 12.5-4.01 3.01-7.02-7.04-19.03-5.5-23.99-14.01-.42-.19-1 0-1 0-.35-.03-.97-.65-1-1-16.78-3.65-58.09-1.3-40.08-30.08 1.11-20.04 29.77-40.55 13.08-57.92-2.86-2.62-2.74-9.03-1-12 9.77-15.79 14.61-33.26 22.92-50.08 12.52-.72 32.51 13.18 46.33 21.83 19.97 26.57 17.58-5.89.75-16.75 7.1.61 14.03 1.82 21 3m67 118c-2.27-5.09-.38-12.16-1-18v-1c-2.16-2.76-.45-7.49-1-11 .14-2.25-2.16-3.71-2-6 27.6 5.01 16.16-10.86-3-1-2.73-7.13-10.34-12.2-15-18 1.77-3.46 5.46-6.19 9-8 .3 2.92-.93 5.43-2 8 11.63-25.6 44.8-16.21 41.21 12.23 13.12 17.1-16.34 68.65-26.21 42.77m-157-57c-3.59-1.11-4.73-4.83-6-8 2.91.91 4.97 5.1 6 8m216 78c5.42-2.28 12.82-.37 19-1 7.39-.59 14.04-3.36 21-5 4.26-1.61 11.81-1.7 16 0-4.21 4.46-6.84 10.87-8 17-.61 3.17 1.25 7.65-1 10-2.31 24.42 10.03 46.93 18 69-67.38 2.46-114.64 63.6-183 65 1.83-11.51-9.88-19.05-7-31 31.8-18 79.78-27.89 79-73 .65-4.83-1.31-10.99 1-15 2.01-15.7-2.66-29.4-8-43 4.04-.44 6.47-4.37 10-6-.41 21.55 28.92 15.05 43 13m-137 25c-3.94-.71-7.1 1.49-11 1 .57 4.28 6.28.75 9 1-1.53 9.06-13.55 6.98-20 5 4.18 10.62-14.36-6.82-9 4-5.03 1.84-22.04-8.98-18-2-12.95-4.13-22.21-8.64-35-10-13.76-27.27 26.47-26.26 37.25-11.25 16.92 13.15 47.92 7.36 20.75-10.75 10.83-17.93 35.52 8.36 26 23m-26-12c-1.56-2.85-5.5-7.74-1-10 1.37 2.27 1.99 7.26 1 10m-21 27c-8.27.29-19.98-.42-25-9 8.96.94 17.47 4.94 25 9m-6 3c-3.59 4.16-12.09.14-15 6 .49-7.56 9.4-9.13 15-6m12 0c6.98 21.3 1.86 46.39-18 58-2.34-1.77 3.35-3.2 0-5-2.89 1.4-4.05 3.87-7 5 3.51-23.93-2.1-9.1-6 5-3.67-3.18-5.43-9.23-11-10 1.26-5.84 9.12-8.59 7-16-4.96-1.12-3.32 4.49-5 7-6-21.84 18.67-42.02 40-44m272 52c-18.87 2.62-40.08-.78-59 3 17.26-5.25 41.64-5.54 59-3m-54 4c-2.76 2.16-7.49.45-11 1 19.76 2.33 41.49.34 62 1-14.73-2.8-31.91.73-47-2 13.5 2.27 49.72-10.76 48 9 6.65.63-.08-7.76 3-10 1.76 3.31.29 6.91 3 9-6.67 5.64-20.99 12.33-26 9-.03 4.16-6.41 6.88-8 4-.69 2.83 2.71 4.55 5 5-1.53 3.24-4.31-1.41-5 0 1.48 4.82 8.27-.04 12 1-7.95-.86-4.21-3.43 2-4-4.46 3 3.87 1.75 6 2-.39-3.16-.68-2.81-2-5 6.06 1.92 11.13-7.57 13 0-2.05-6.27 4.99-2.61 5-7 3.66-1.19 4.26 3.17 8 2 .11-10.98 22.5 2.48 27 11-4.28 2.55-10.9 6.47-15 3-1.5 6.89-13.48 3.81-20 3-2.44 6.24-31.39 14.87-37 4-15.9 7.54-42.24 3.64-61 4 5.74-1.87 11.52-3.86 18-3-2.75-3.53-.4-5.55 4-5-1.63 5.5 4.75 3.78 8 4 .46-8.16 13.98-2.16 20-4 .73-9.08-13.08-2.21-19-4 3.41-2.11 8.27-3.7 10-1 .6-1.95.58-5.17 4-5 1.24 2.01 1.15 5.21 5 4-2.13-6.09 2.97-9.13 8-6 2.68-13.57-16.22 3.44-12-8-3.79-1.26-6.68 4.67-4 6-2.67 2.58-16.77 6.58-10 2h-10c-1.79 13.85-30.75 11.14-37 2 3.71-1.78 4.89-2.37 5 2 4.01-.19 7.77-1.6 12-1-1.77-2.03-5.48-.53-8-1 1.64-2.59 6.43.66 8-2-3.08-.11-4.98-.74-8 0 9.37-8.17 27.79-21.37 44-20m-9 24c-2.11-.58-4.53 3.47-6 1 1.26-.88 4.75-3.22 6-1m-43 4c.17 4.72-.61 9.64 1 14-2.38.65-3.56-.03-5 2 2.41-5.77-10.37-5.9-8 0-1.32-2.94-2.02-5.11-2 0-1.11-4.84-12.79-2.24-19-2 1.32-6.13 11.2-4 17-5-1.59-2.84-7.97 1.35-8-3 3.93-1.83 9.21-2.5 12-6 2.78.74 2.23 1.83 3 4 1.12-3.96.14-5.34 3-7 2.03 1.96 1.72 3.92 6 3m44 0c1.13 3.49-5.41 4.62-7 3 2.49-.57 4.44-2.34 7-3m104 3c.59 4.3-5.27 1.62-6 5 6.36-.93 14.08-1.71 21 0-4.01-2.87 1.59-2.87 4-2-.15 2.63-4.57 2.08-3 6h-36c4.2-4.23-6.29.36-8 1 7.09 2.3 16.16.36 24 1-8.09 2.31-18.16.35-27 1 13.54 4.24 33.67-3.54 45 4-9.97 2.39-20.01 6.37-30 6 4.65 2.78-7.67 6.07-4-1-3.1.16-9.71 5.13-5 6-17.62 4.64-32.84 6.42-51 6-.75 3.84 5.72.06 5 4-13.18 1.67-24.67 8.04-37 12 2.9-3.05-1.7-7.12 0-12-10.9-3.41-7.67 8.22-8 15-8.28 1.26-16 5.07-24 7 .35-3.15.46-7.3-4-6 3.47 14.9-41.46 20.3-36 16-3.33.22-9.49-1.56-8 4-5.59.26-10.52 1.49-16 0 1.63-5.5-4.74-3.78-8-4-1.19 7.75 1.89 4.17 7 4-4.09 2.08-1.46 1.13 1 3-27.88 2.74-55.19-.1-82 2-1.82-2.58-.67-6.02-1-9 1.48 4.22 2.17 3.9 2-1 1.97 1.37-.26 6.24 4 5v-16c-2.03 1.77-.53 5.48-1 8-3.13-6.47-.15-13.47 2-20 2.03 1.77.53 5.48 1 8 2.03-1.77.53-5.48 1-8 2.03 1.77.53 5.48 1 8 2.33-5.55 1.41-11.84 1-18 3.48 2.39 6.09-2.88 8-6 3.14-.88 5.58.14 9 0-.88-2.52.42-4.82-3-2-.48-2.66 3.53-3.32 3-6-2.12.38-3.41 3.39-6 1 .29-3.13 8.49-2.3 1-3 5.43-.51.2-3.95 6-4-.5 6.64.13 12.53 2 18 4.01 1.43 3.45-2.17 5-4 14.92-4.33 31.76-2 46-2-16.67 3.36-30.22 8.6-50 14-1.24-2.01-1.15-5.21-5-4 2.99 8.13-8.83 5.19-8 12 5.53.59 8.59-2.06 14-2-4.58 4.66.39 7.39 6 6-2-5.35 5.95-2.57 4-8h49c-12.76-2.32-27.49-.34-41-1 12.26-2.99 27.81.99 40-2-12.78-.72-25.66-3.41-37-1 10.81-5.44 28.06-11.54 41-8 .84-7.7 13.89-3.49 20-6-9.68-5.64 12.77 1.64 6-4 5.59-1.88 12.02-.65 18-1-2.1-2.08-6.15-.5-9-1-.53-3.29 5.53 1.01 4-4 4.9-.36 8.43-.33 13-2-3.42-6.19 10.2 1.45 0 3-1.14 4.01 3.64 2.85 6 3 1.35-16.35 31.02-4.99 44-7-8.28 2.55-19.35 6.99-26 3-3.69 10.12-38.87 17.84-44 12-4.8 1.22-10.55 5.9-2 6-4.74 1.42-9.66 2.33-14 5 2.21-2.14.67-7.82-4-7 .42 3.96-.01 7.23-2 10-1.93-.71-2.16-3-6-2 5.38 2.27-3.5 6.17-7 5 2.83 1.57-.29 4.33 0 7 2.42-1.03 4.53-.9 7 0 1.63-6.99 13.86-7.23 20-11-1.4 1.97.78 4.5 0 7 2.8-6.45 12.94-3.31 20-4 1.43-4.01-2.17-3.45-4-5 3.97 1.22 5.48-3.78 5-6 16.87-.27 26.26-8.28 43-5-2.75-2.58-8.72.83-11-3 4.31-.73 9.4.63 14-1-5.87-4.01 12.67-1.13 17-2-4.42-2.25-10.82-.39-16-1 3.14-2.75 7.03-.82 11-1-1.33-3.6 14.4-3.58 20-5-7.82 3.56 4.26 5.86 1-1 4.44-1.46 4.28 2.93 4 6 5.45 1.47 5.98-7.45 1-7 7.71-1.35 15.52-.31 22-4-.63 5.74 6.02 1.32 9 2-1.64-2.59-6.43.66-8-2 13.35-2.26 27.32-4.07 40-10m-128 3c-2.87-1.87-5.74 2.97-8-1 1.83-.23 6.62-2.27 8 1m164 7c-5.81.45-9.73 2.78-15 5-.16-2.52 4.31-2.68 3-6-4.73-1.32-3.06 5.92-8 4 .96-4.1 4.03-6.22 7-9 .92 8.79 9.97 2.59 13 6m-218 2c-3.59-1.73-5.04 1.01-7 2-1.97-3.09 8.13-7.58 7-2m111-1c-5.87 4.49-5.98-4.03 0 0m-93 1c-1.13 4.29 3.92 1.79 6 1-2.35 5.39-12.06 3.32-16 8-3.11-.09-1.24-5.91-6-4 2.36 6.85-16.29 12.45-14 4-4.81 4.81-18.31 5.38-24 1 7.63-3.78 13.63-4.7 22-3-1.95-4.1-3.19-4.29 3-5 1.81 6.74 19.05-4.52 29-2m83 2c-3.03.56-5.02.09-8 1 1.06-2.86 6.34-2.7 8-1m-29 11c.51-2.9 3.49-.05 4-3 3.14 2.59-1.85 3.62-4 3m-108-1c-3.85 1.97-8.41.03-13 1 3.42-1.95 9.03-3.07 13-1m61 14c1.22 4.32-6.31 3.63-8 2 2.92.3 5.43-.93 8-2m-91 7c.16 8.86-9.51-1.46 0 0m-36 14c.35 2.86-.27 5.39-1 8-1.96-1.86-1.2-6.52 1-8Z"/>
  <path fill="none" fill-opacity="0" stroke="#DECCB2" stroke-width=".3" d="M347 44c-4.89-3.16-12-1.65-18-2 5.13 2.13 12.36.31 18 2Z"/>
  <path fill="none" fill-opacity="0" stroke="#D9C29E" stroke-width=".3" d="M413 113c5.91-10.5-19.18-42.31-35.77-50.23C352.76 49.95 326.22 41.94 297 45c-47.88 8.82-112.55 10.71-140.23 54.23 27.04 2.69 43.08 27.98 72.23 24.77-20.87-11.2-39.96-29.16-63-35 26.34-1.34 49.86 29.3 74 36-11.32-18.07 18.95-1.79 29-4-1.08-2.22-2.54-4.32-2-7 28.02 3.16 58.52 2.05 83-5 7.18-.59 13.28 2.92 20 4 5.39-10.99 20.12-.92 29 0 1.36-6.5 8.82.08 13-1-14.13-36.28-58.1-40.33-84-63 29.9 17.46 78.05 27.47 85 64m-16-3c-33.56-21.51-69.96-48.3-110-59 41.8 5.92 79.1 32.85 110 59m-24-5c-35.69-8.97-79.59-43.78-120-48 44.67 1.07 80.4 30.98 120 48M226 62c40.03 12.81 80.04 33.4 119 47-21.86 2.08-40.32-15.81-61.22-21.78C266.55 78.28 231.37 71.98 226 62m75 52c-36.71-1.41-63.26-37.13-99-46 35.69 2.59 62.83 39.42 99 46m-35 3c-28.82 2.65-49.58-39.46-81-40 28.79-6.63 50.92 35.5 81 40Z"/>
  <path fill="none" fill-opacity="0" stroke="#D5C1A3" stroke-width=".3" d="M239 52c4.5-2.02 9.92-2.66 14-5-4.87.81-10.27 1.73-14 5Z"/>
  <path fill="none" fill-opacity="0" stroke="#D7C19F" stroke-width=".3" d="M419 105c-4.22-29.61-35.94-57.16-66-55 30.82 5.47 50.84 28.99 66 55Z"/>
  <path fill="none" fill-opacity="0" stroke="#070605" stroke-width=".3" d="M397 110c-30.9-26.15-68.2-53.08-110-59 40.04 10.7 76.44 37.49 110 59Z"/>
  <path fill="none" fill-opacity="0" stroke="#080605" stroke-width=".3" d="M373 105c-39.6-17.02-75.33-46.93-120-48 40.41 4.22 84.31 39.03 120 48Z"/>
  <path fill="none" fill-opacity="0" stroke="#0A0807" stroke-width=".3" d="M226 62c5.37 9.98 40.55 16.28 57.78 25.22 20.9 5.97 39.36 23.86 61.22 21.78-38.96-13.6-78.97-34.19-119-47Z"/>
  <path fill="none" fill-opacity="0" stroke="#D5C1A4" stroke-width=".3" d="M178 72c3.86-.98 7.66-3.37 11-5-4.07.27-7.89 2.81-11 5Z"/>
  <path fill="none" fill-opacity="0" stroke="#070605" stroke-width=".3" d="M301 114c-36.17-6.58-63.31-43.41-99-46 35.74 8.87 62.29 44.59 99 46Z"/>
  <path fill="none" fill-opacity="0" stroke="#C5B293" stroke-width=".3" d="M412 78c-2.05-3.37-4.51-6.77-8-9 2.7 2.93 4.87 6.59 8 9Z"/>
  <path fill="none" fill-opacity="0" stroke="#070605" stroke-width=".3" d="M266 117c-30.08-4.5-52.21-46.63-81-40 31.42.54 52.18 42.65 81 40Z"/>
  <path fill="none" fill-opacity="0" stroke="#D5C1A4" stroke-width=".3" d="M418 91c.19-3.2-3.09-9.2-6-12 2.02 4.02 3.97 7.97 6 12Z"/>
  <path fill="none" fill-opacity="0" stroke="#D8C2A0" stroke-width=".3" d="M176 123c1.29.94 4.16 1.89 5 0-6.36-4.41-15.03-7.53-20-15 19.25 9.6 41.06 24.26 53 43-6.36-25.37-32.53-47.25-59-48 .24 9.06 13.29 14.89 21 20Z"/>
  <path fill="none" fill-opacity="0" stroke="#DCC5A1" stroke-width=".3" d="M157 367c-.21 2.62 3.51 5.96 1 8 1.59 3.53 2.06 7.12 4 10-6.3.69-7.01-8.19-7-13-1.26-.08-.56-2.06-2-2-4.77.28-11.13-2.11-11 6-7.94 1.36-8.21-10.85-15-11-3.36 14.93 1.37 32.54 16 39-.34-3.57-8.03-9.95 0-10 1.11 8.78 8.83 19.47 19 18-.13-3.2-3.04-5.09-4-8 7.74 7.89 28.53 12.89 38-1-.34-4.11-5.29-6.11-6-10 4.76-1.13 5.47 4.3 8 7 3.46-2.6 7.81-2 12-2 .31-3.39-4.26-3-5-6 3.3-2.84 5.39 1.53 8 3 4.81-9.12 17.05-9.48 22-17-2.58-1.37-6.26-3.27-7-6 12.66 7.37 26.49-2.78 39-8-2.61-3.12-15.07 2.22-12-5 13.15 4.27 34.72-6.42 35-20-4.54 2.89-12.44 3.27-16-1 14.88 3.41 24.36-7.11 25-22-5.41-7.27-13.63-9.79-21-13 9.12-4.06 15.31 4.69 22 8-2.72-7.68.08-16.13 0-24-4.32.54-7.88-1.85-12-2 1.09-6.03 8.37-.3 12 0-3.66-14.32-18.54-25.01-28-36 12.16-2.9 13.28 16.13 23 20-6.37-11.09-11.97-23.17-11-37-9.72.43-18.29-11.01-20-20 6.15 5.37 9.97 16.13 20 18-.86-6.63-.52-13.55-2-20-8.86 4.93-17.66-5.97-22-13 8.23.87 9.15 11.66 18 12-34.36-20.63 15.5-54.85 33.75-32.75 22.17 27.74-3.64 61.23-.75 85.75 32.26 2.45 65.39-6.35 95-5 50.61-33.67 46.06-98.44 15-142-13.82 6.46-40.32-10.16-44 2-8.39-.41-15.12-2.82-23-5-6.01 11.52-34.14-3.52-41 8-14.81.94-28.78-1.61-43-3 1.08 2.22 2.54 4.32 2 7-19.47-8.41-35.77 6.09-28.07 24.92 17.5 27.67 4.45 68.94 27.07 90.08 28.24 6.75-16.95 4.49-16-14-19.42 8.71 5.26 22.02 12 30-10.39-3.23-17.48-12.57-26-19-11.88 15.94 10.4 34 23 41-12.16 2.25-30.73-19.78-30-34-15.92 17.15.97 44.82 10 61-13.95-10.36-19.98-31.02-20-49-2.27 3.32-1.32 6.33-1 10-6.45 20.53-19.27 51.18-51 38 7.05 20.29 6.65 49.88-15 64m113-134c-3.45.25-7.29-3.53-7-7 3.01.7 6.37 3.96 7 7m-12 7c-2.04-.3-5.27-1.29-5-4 2.7-.7 5.83.8 5 4m-4 12c-3.19.5-6.3-1.58-8-4 2.74-2.04 7.34 1.4 8 4m36 42c-17.37 3.87-19.54-21.63-32-29 14.62.96 15.97 27.33 32 29m-11-30c-.17 4.55 6.38 6.11 5 11-3.27-1.3-13.02-10.39-5-11m-35 19c-4.48-.07-8.57-7.14-7-11 3.14 1.9 6.02 7.12 7 11m-17 17c-3.99-1.33-4.77-7.16-8-10 5.51-2.53 6.89 6.36 8 10m0 26c-10.09-7.48-10.33-24.01-12-35 7.62 9.51 6.23 25.2 12 35m49 3c-15.44-1.04-20.48-26.61-29-38 13.11 8.19 14.99 30.67 29 38m-4-27c-2.85-3.14-9.63-5.92-10-11 4.04 1.91 9.47 6.24 10 11m21 27c-8.61-10.83-27.3-11.35-29-28 3.49 13.35 27.73 14.17 29 28m-109-15c-5.7 1.5-5.33-5.14-8-8 4.97-2.74 5.98 5.66 8 8m24-3c-3.1.68-4.2-3.15-6-5 3.38-3.04 6.53 1.78 6 5m39 42c-7.28-14.61-12.15-31.12-17-47 8.83 11.54 16.23 31.75 17 47m-37-16c-9.31-2.28-10.24-19.1-16-27 9.44 4.61 10.57 18.33 16 27m35-23c13.88 12.83 1.04 18.61 0 0m-19 68c-27.5-6.53-26.11-47.01-41-66 21.03 18.46 16.17 52.77 41 66m18-12c-26.02-6.44-20.85-40.1-39-54 23.17 9.85 15.47 43.41 39 54m-32 15c-16.83-11.52-13.75-41.41-29-56 19.14 12.39 17.03 39.36 29 56m24-41c-3.76.45-5.84-4.2-7-7 3.8-.88 6.92 3.56 7 7m40 9c-8.38.76-9.64-9.09-14-14 6.19-1.17 8.79 11.34 14 14m-81 35c-6.82-14.76-11.18-30.66-14-47 6.17 12.33 12.86 31.92 14 47m51-23c-4.98.24-5.72-6.29-9-9 4.52-2.48 8.41 5.07 9 9m-72-8c-.94 4.77 1.59 8.56 2 13-4.82-.6-9.57-13.23-2-13m51 8c-3.84.25-6.67-4.63-7-8 3.97-.01 6.93 4.16 7 8m-54 3c1.97 9.82 2.91 19.93 4 30-6.29-5.59-7.77-23.87-4-30m-22 9c-1.97 9.14 2.61 16.36 5 24-8.16-2.14-11.68-19.31-5-24m35 19c-7.62 1.61-8.48-15.12-7-19 4.11 5.41 4.01 12.92 7 19m-52-16c-.95 5.89 5.02 9.38 5 15-5.28-1.01-11.64-13.73-5-15m53 29c-4.08-.43-9.86-3.53-10-8 3.8.96 9.41 4.11 10 8Z"/>
  <path fill="none" fill-opacity="0" stroke="#EADAC3" stroke-width=".3" d="M131 168c.04 4.09-.41 8.25 1 12 16.69 17.37-11.97 37.88-13.08 57.92-18.01 28.78 23.3 26.43 40.08 30.08-.05-.5 0-1 0-1-7.47-3.31-15.43-4.78-24-4 14.13 0 53.2-1.22 18-14 9.2-7.15 24.17 4.83 18 16-.67 1.2-1.64 2.58-3 3-1.73 1.23-5 1.91-7 1 4.96 8.51 16.97 6.97 23.99 14.01 16.14 9.49 3.62-21.89 4.01-3.01-10.3.9-11.87-11.24-5-17-7.12-2.84-.94-9.23 2-2 11.34-6.74 24.02 3.04 29 13 2.79-12.02 9.12-32.27 21-34-.89-2.96-1.11-6.07-2-9 4.57 2.83 5.77 1.54 11 2 24.72-31.82-10.88-68.85-5-105h-10c-2.02-.46-9.03 1.05-8-1 .23-.35 0-1 0-1-6.97-1.18-13.9-2.39-21-3 16.83 10.86 19.22 43.32-.75 16.75-13.82-8.65-33.81-22.55-46.33-21.83-8.31 16.82-13.15 34.29-22.92 50.08m25-14h9c-2.52.96-10.33 2.67-11 0-3.53.22-6.72 1.78-10 3 12.16-15.31 44.69-5.75 65-4-13.62 5.76-36.69-5.14-53 1m29 0c-2.1 2.08-6.15.5-9 1 2.1-2.08 6.15-.5 9-1m38 34c2.27-8.69-5.09-20.72-.91-27.92 4.02 7.02 6.24 21.77.91 27.92m-58 1c.5-.02 1.5 0 2 0 4.93-1.62 13.15-1.69 18 0 .3.22.79.97 1 1 6.8-.28 10.09 6.85 16 8-.79 9.98-12.97 12.85-21 15-.24.2 0 1 0 1-4.92 1.62-13.15 1.69-18 0-.25-.26 0-1 0-1-2.2-1.01.71-3.57 2-4-3.49-4.73-2.54-10.81-1-16-3.96-.21-8.53-1.35-9-6-10.24 13.42-24.44-10.17-13-16 4.87 17.61 28.9-6.79 42.22 2.78 13.31 4.81 27.9 13.68 36.78 23.22-19.75-5.59-40.99-21.46-62-11-.11 2.81 3.78 3.17 6 3m59 15c-5.98 1.34-12.63-2.61-19-3 3.09-6.38 15.06-.62 19 3m-73-5c-3.92 10.11-5.81 26.86-13.23 32.21 2.87-9.65 4.26-27.43 13.23-32.21m-5 59c-2.43 2.13-6.82.47-10 1 2.43-2.13 6.82-.47 10-1Z"/>
  <path fill="none" fill-opacity="0" stroke="#544C40" stroke-width=".3" d="M181 123c-.84 1.89-3.71.94-5 0 2.04 3.15 6.98 2.04 10 4 .44-3.26-3.25-2.7-5-4Z"/>
  <path fill="none" fill-opacity="0" stroke="#B6A282" stroke-width=".3" d="M222 127c2.52.56 6.3-1.19 8 1h6c-3.91-1.8-9.23-2.09-14-2 0 0 .23.65 0 1Z"/>
  <path fill="none" fill-opacity="0" stroke="#FDFFFD" stroke-width=".3" d="M230 128c-1.7-2.19-5.48-.44-8-1-1.03 2.05 5.98.54 8 1Z"/>
  <path fill="none" fill-opacity="0" stroke="#050403" stroke-width=".3" d="M154 154c.5-.02 1.5 0 2 0 16.31-6.14 39.38 4.76 53-1-20.31-1.75-52.84-11.31-65 4 3.28-1.22 6.47-2.78 10-3Z"/>
  <path fill="none" fill-opacity="0" stroke="#FDFFFD" stroke-width=".3" d="M156 154c-.5 0-1.5-.02-2 0 .67 2.67 8.48.96 11 0zM185 154c-2.85.5-6.9-1.08-9 1 2.85-.5 6.9 1.08 9-1Z"/>
  <path fill="none" fill-opacity="0" stroke="#030202" stroke-width=".3" d="M223 188c5.33-6.15 3.11-20.9-.91-27.92-4.18 7.2 3.18 19.23.91 27.92Z"/>
  <path fill="none" fill-opacity="0" stroke="#403A33" stroke-width=".3" d="M132 180c-1.41-3.75-.96-7.91-1-12-1.74 2.97-1.86 9.38 1 12Z"/>
  <path fill="none" fill-opacity="0" stroke="#040303" stroke-width=".3" d="M163 213h18c8.03-2.15 20.21-5.02 21-15-5.91-1.15-9.2-8.28-16-8-6.83-.66-14.99 1.32-21-1-2.22.17-6.11-.19-6-3 21.01-10.46 42.25 5.41 62 11-8.88-9.54-23.47-18.41-36.78-23.22-13.32-9.57-37.35 14.83-42.22-2.78-11.44 5.83 2.76 29.42 13 16 .47 4.65 5.04 5.79 9 6-1.54 5.19-2.49 11.27 1 16-1.29.43-4.2 2.99-2 4m38-28c-16.93-14.26-50.59 8.44-59-5 20.03.45 41.19-10.98 59 5m-18 23c-5.53.78-15.4 3.52-16-5 2.34 2.58 5.79 1.99 9 2 1.84-5.16-3.13-10.57-8-7 3.05-10.79 19.92-.75 15 10m15-9c-5.19 9.86-17.55 9.04-13-5 5.61-1.74 7.83 5.38 13 5Z"/>
  <path fill="none" fill-opacity="0" stroke="#EADAC4" stroke-width=".3" d="M287 214c2.16 2.76.45 7.49 1 11v1c.25.25 1 0 1 0 1.62 4.92 1.69 13.15 0 18 9.87 25.88 39.33-25.67 26.21-42.77C318.8 172.79 285.63 163.4 274 189c1.07-2.57 2.3-5.08 2-8-3.54 1.81-7.23 4.54-9 8 4.66 5.8 12.27 10.87 15 18 19.16-9.86 30.6 6.01 3 1-.16 2.29 2.14 3.75 2 6m25-9c.09.2 1 0 1 0 1.63 2.44 1.64 11.86 0 12-.35-.23-1 0-1 0-1.18 5.07-1.91 17.36-9 15 10.63-14.84 7.58-40.52-14-42-1.66 2.2-4.87 3.82-6 0 10.37-6.44 26.72 3.04 29 15Z"/>
  <path fill="none" fill-opacity="0" stroke="#D8C4A5" stroke-width=".3" d="M201 185c-17.81-15.98-38.97-4.55-59-5 8.41 13.44 42.07-9.26 59 5Z"/>
  <path fill="none" fill-opacity="0" stroke="#D5BE9B" stroke-width=".3" d="M448 209c2.86-9.84 3.52-24.16 0-34 1.85 10.94 1.2 23.04 0 34Z"/>
  <path fill="none" fill-opacity="0" stroke="#CEBB9D" stroke-width=".3" d="M132 187c-1.03-2.9-3.09-7.09-6-8 1.27 3.17 2.41 6.89 6 8Z"/>
  <path fill="none" fill-opacity="0" stroke="#060504" stroke-width=".3" d="M312 217v-12c-2.28-11.96-18.63-21.44-29-15 1.13 3.82 4.34 2.2 6 0 21.58 1.48 24.63 27.16 14 42 7.09 2.36 7.82-9.93 9-15Z"/>
  <path fill="none" fill-opacity="0" stroke="#FDFFFD" stroke-width=".3" d="M167 189h18c-4.85-1.69-13.07-1.62-18 0Z"/>
  <path fill="none" fill-opacity="0" stroke="#B6A282" stroke-width=".3" d="M186 190c-.21-.03-.7-.78-1-1h-18c-.5 0-1.5-.02-2 0 6.01 2.32 14.17.34 21 1Z"/>
  <path fill="none" fill-opacity="0" stroke="#B5A282" stroke-width=".3" d="M183 208c4.92-10.75-11.95-20.79-15-10 4.87-3.57 9.84 1.84 8 7-3.21-.01-6.66.58-9-2 .6 8.52 10.47 5.78 16 5Z"/>
  <path fill="none" fill-opacity="0" stroke="#F2EDE5" stroke-width=".3" d="M198 199c-5.17.38-7.39-6.74-13-5-4.55 14.04 7.81 14.86 13 5Z"/>
  <path fill="none" fill-opacity="0" stroke="#070605" stroke-width=".3" d="M224 204c-3.94-3.62-15.91-9.38-19-3 6.37.39 13.02 4.34 19 3Z"/>
  <path fill="none" fill-opacity="0" stroke="#070604" stroke-width=".3" d="M151 199c-8.97 4.78-10.36 22.56-13.23 32.21 7.42-5.35 9.31-22.1 13.23-32.21Z"/>
  <path fill="none" fill-opacity="0" stroke="#B6A282" stroke-width=".3" d="M312 217s.65-.23 1 0v-12s-.91.2-1 0z"/>
  <path fill="none" fill-opacity="0" stroke="#FDFFFD" stroke-width=".3" d="M313 217c1.64-.14 1.63-9.56 0-12z"/>
  <path fill="none" fill-opacity="0" stroke="#B6A282" stroke-width=".3" d="M163 214h18s-.24-.8 0-1h-18s-.25.74 0 1Z"/>
  <path fill="none" fill-opacity="0" stroke="#FDFFFD" stroke-width=".3" d="M181 214h-18c4.85 1.69 13.08 1.62 18 0Z"/>
  <path fill="none" fill-opacity="0" stroke="#B6A282" stroke-width=".3" d="M288 225c-.55-3.51 1.16-8.24-1-11 .55 3.51-1.16 8.24 1 11Z"/>
  <path fill="none" fill-opacity="0" stroke="#080706" stroke-width=".3" d="M270 233c-.63-3.04-3.99-6.3-7-7-.29 3.47 3.55 7.25 7 7Z"/>
  <path fill="none" fill-opacity="0" stroke="#B6A282" stroke-width=".3" d="M289 244v-18s-.75.25-1 0c.62 5.84-1.27 12.91 1 18Z"/>
  <path fill="none" fill-opacity="0" stroke="#FDFFFD" stroke-width=".3" d="M289 244c1.69-4.85 1.62-13.08 0-18z"/>
  <path fill="none" fill-opacity="0" stroke="#12100D" stroke-width=".3" d="M258 240c.83-3.2-2.3-4.7-5-4-.27 2.71 2.96 3.7 5 4Z"/>
  <path fill="none" fill-opacity="0" stroke="#D8C5AB" stroke-width=".3" d="M111 258c-2.27-3.4-.32-7.46 0-11-2 2.5-3.74 8.92 0 11Z"/>
  <path fill="none" fill-opacity="0" stroke="#040303" stroke-width=".3" d="M159 267c4.1-.33 8.86 1.19 12-2 6.17-11.17-8.8-23.15-18-16 35.2 12.78-3.87 14-18 14 8.57-.78 16.53.69 24 4Z"/>
  <path fill="none" fill-opacity="0" stroke="#060504" stroke-width=".3" d="M254 252c-.66-2.6-5.26-6.04-8-4 1.7 2.42 4.81 4.5 8 4Z"/>
  <path fill="none" fill-opacity="0" stroke="#EBDAC4" stroke-width=".3" d="M303 301v5c1.54 2.28 1.72 7.79 0 10-.26.25-1 0-1 0 .78 45.11-47.2 55-79 73-2.88 11.95 8.83 19.49 7 31 68.36-1.4 115.62-62.54 183-65-7.97-22.07-20.31-44.58-18-69-.05-.49 0-1 0-1-1.52-1.96-1.72-7.11 0-9 .26-.25 1 0 1 0 1.16-6.13 3.79-12.54 8-17-.04-.13-1.5 0-2 0-2.28 1.54-7.79 1.72-10 0h-4c-6.96 1.64-13.61 4.41-21 5-.24.2 0 1 0 1-4.93 1.62-13.15 1.69-18 0h-1c-14.08 2.05-43.41 8.55-43-13-3.53 1.63-5.96 5.56-10 6 5.34 13.6 10.01 27.3 8 43m95 53c-2.43 2.13-6.82.47-10 1 2.43-2.13 6.82-.47 10-1m-153 43c-4.43 2.41-2.19 11.08-8 11 .45-4.81 2.45-9.16 3-14 1.3-3.4.09-8.15 2-11 .94-.57 1.82-1.15 3-1h1c1.83 3.59 1.69 14.04-1 15Z"/>
  <path fill="none" fill-opacity="0" stroke="#FDFFFD" stroke-width=".3" d="M146 258c-3.18.53-7.57-1.13-10 1 3.18-.53 7.57 1.13 10-1Z"/>
  <path fill="none" fill-opacity="0" stroke="#403A33" stroke-width=".3" d="M388 259h14c.5 0 1.96-.13 2 0-4.19-1.7-11.74-1.61-16 0Z"/>
  <path fill="none" fill-opacity="0" stroke="#FDFFFD" stroke-width=".3" d="M402 259h-10c2.21 1.72 7.72 1.54 10 0Z"/>
  <path fill="none" fill-opacity="0" stroke="#D9C3A2" stroke-width=".3" d="M211 290c9.52-14.64-15.17-40.93-26-23 27.17 18.11-3.83 23.9-20.75 10.75-10.78-15.01-51.01-16.02-37.25 11.25 12.79 1.36 22.05 5.87 35 10-4.04-6.98 12.97 3.84 18 2-5.36-10.82 13.18 6.62 9-4 6.45 1.98 18.47 4.06 20-5-2.72-.25-8.43 3.28-9-1 3.9.49 7.06-1.71 11-1m-13-11c2.43-6.01-3.91-10.14-2-15 5.64 2.05 7.82 13.11 2 15m-67-8c-1.81 7.43 3.07 13.71 9 18-8.24 3.01-18.57-13.69-9-18m21 20c-7.24-2.85-20.11-6.37-18-17 4.77 4.97 14.06 10.71 18 17m26-2c-8.63 6.78-30.28-3.03-29-15 7.41 6.55 17 14.56 29 15m21-5c5.36-.81 4.27-6.86 6-10 7.04 2.12-2.92 18.48-6 10m-5 7c.69 7.61-10.2 2.82-14 1 4.09-3.14 9.59 1.6 14-1Z"/>
  <path fill="none" fill-opacity="0" stroke="#070604" stroke-width=".3" d="M198 279c5.82-1.89 3.64-12.95-2-15-1.91 4.86 4.43 8.99 2 15Z"/>
  <path fill="none" fill-opacity="0" stroke="#090706" stroke-width=".3" d="M290 294c-16.03-1.67-17.38-28.04-32-29 12.46 7.37 14.63 32.87 32 29Z"/>
  <path fill="none" fill-opacity="0" stroke="#090806" stroke-width=".3" d="M279 264c-8.02.61 1.73 9.7 5 11 1.38-4.89-5.17-6.45-5-11Z"/>
  <path fill="none" fill-opacity="0" stroke="#B6A282" stroke-width=".3" d="M348 265h19s-.24-.8 0-1c-6.18.63-13.58-1.28-19 1ZM159 267s-.05.5 0 1c.03.35.65.97 1 1 1.77-2.03 5.48-.53 8-1 1.36-.42 2.33-1.8 3-3-3.14 3.19-7.9 1.67-12 2Z"/>
  <path fill="none" fill-opacity="0" stroke="#FDFFFD" stroke-width=".3" d="M367 265h-18c4.85 1.69 13.07 1.62 18 0ZM160 269s.58-.19 1 0c2 .91 5.27.23 7-1-2.52.47-6.23-1.03-8 1Z"/>
  <path fill="none" fill-opacity="0" stroke="#D2BE9F" stroke-width=".3" d="M185 278c.99-2.74.37-7.73-1-10-4.5 2.26-.56 7.15 1 10Z"/>
  <path fill="none" fill-opacity="0" stroke="#050404" stroke-width=".3" d="M131 271c-9.57 4.31.76 21.01 9 18-5.93-4.29-10.81-10.57-9-18Z"/>
  <path fill="none" fill-opacity="0" stroke="#E1D0B7" stroke-width=".3" d="M120 283c3.86-1.98 1.23-7.5 2-11-2.68 2.65.58 7.93-2 11Z"/>
  <path fill="none" fill-opacity="0" stroke="#0C0A08" stroke-width=".3" d="M244 283c-.98-3.88-3.86-9.1-7-11-1.57 3.86 2.52 10.93 7 11Z"/>
  <path fill="none" fill-opacity="0" stroke="#040303" stroke-width=".3" d="M152 291c-3.94-6.29-13.23-12.03-18-17-2.11 10.63 10.76 14.15 18 17Z"/>
  <path fill="none" fill-opacity="0" stroke="#030202" stroke-width=".3" d="M178 289c-12-.44-21.59-8.45-29-15-1.28 11.97 20.37 21.78 29 15Z"/>
  <path fill="none" fill-opacity="0" stroke="#080706" stroke-width=".3" d="M199 284c3.08 8.48 13.04-7.88 6-10-1.73 3.14-.64 9.19-6 10Z"/>
  <path fill="none" fill-opacity="0" stroke="#FDFFFD" stroke-width=".3" d="M395 285v-9c-1.72 1.89-1.52 7.04 0 9Z"/>
  <path fill="none" fill-opacity="0" stroke="#B6A282" stroke-width=".3" d="M395 285s-.05.51 0 1c2.25-2.35.39-6.83 1-10 0 0-.74-.25-1 0z"/>
  <path fill="none" fill-opacity="0" stroke="#070605" stroke-width=".3" d="M227 300c-1.11-3.64-2.49-12.53-8-10 3.23 2.84 4.01 8.67 8 10Z"/>
  <path fill="none" fill-opacity="0" stroke="#0D0B09" stroke-width=".3" d="M194 291c-4.41 2.6-9.91-2.14-14 1 3.8 1.82 14.69 6.61 14-1Z"/>
  <path fill="none" fill-opacity="0" stroke="#070605" stroke-width=".3" d="M227 326c-5.77-9.8-4.38-25.49-12-35 1.67 10.99 1.91 27.52 12 35Z"/>
  <path fill="none" fill-opacity="0" stroke="#080605" stroke-width=".3" d="M276 329c-14.01-7.33-15.89-29.81-29-38 8.52 11.39 13.56 36.96 29 38Z"/>
  <path fill="none" fill-opacity="0" stroke="#040303" stroke-width=".3" d="M272 302c-.53-4.76-5.96-9.09-10-11 .37 5.08 7.15 7.86 10 11Z"/>
  <path fill="none" fill-opacity="0" stroke="#DFCDB3" stroke-width=".3" d="M164 305c-7.53-4.06-16.04-8.06-25-9 5.02 8.58 16.73 9.29 25 9Z"/>
  <path fill="none" fill-opacity="0" stroke="#0B0908" stroke-width=".3" d="M293 329c-1.27-13.83-25.51-14.65-29-28 1.7 16.65 20.39 17.17 29 28Z"/>
  <path fill="none" fill-opacity="0" stroke="#403A33" stroke-width=".3" d="M302 316s.74.25 1 0v-15c-2.31 4.01-.35 10.17-1 15Z"/>
  <path fill="none" fill-opacity="0" stroke="#050403" stroke-width=".3" d="M184 314c-2.02-2.34-3.03-10.74-8-8 2.67 2.86 2.3 9.5 8 8Z"/>
  <path fill="none" fill-opacity="0" stroke="#0D0B09" stroke-width=".3" d="M208 311c.53-3.22-2.62-8.04-6-5 1.8 1.85 2.9 5.68 6 5Z"/>
  <path fill="none" fill-opacity="0" stroke="#D8C6AC" stroke-width=".3" d="M158 308c-5.6-3.13-14.51-1.56-15 6 2.91-5.86 11.41-1.84 15-6Z"/>
  <path fill="none" fill-opacity="0" stroke="#080705" stroke-width=".3" d="M247 353c-.77-15.25-8.17-35.46-17-47 4.85 15.88 9.72 32.39 17 47Z"/>
  <path fill="none" fill-opacity="0" stroke="#FCFFFD" stroke-width=".3" d="M303 316c1.72-2.21 1.54-7.72 0-10z"/>
  <path fill="none" fill-opacity="0" stroke="#C5B091" stroke-width=".3" d="M403 319c-.01-2.75-.88-8.77-2-12-.19 4.21-.08 8.4 2 12Z"/>
  <path fill="none" fill-opacity="0" stroke="#DAC4A1" stroke-width=".3" d="M170 308c-21.33 1.98-46 22.16-40 44 1.68-2.51.04-8.12 5-7 2.12 7.41-5.74 10.16-7 16 5.57.77 7.33 6.82 11 10 3.9-14.1 9.51-28.93 6-5 2.95-1.13 4.11-3.6 7-5 3.35 1.8-2.34 3.23 0 5 19.86-11.61 24.98-36.7 18-58m-9 6c1.9 2.9.62 6.7 1 10-5.66 1.08-5.37-8.71-1-10m-17 5c-.49 11.84-6.64 22.71-5 34-8.12-10.01.04-24.56 5-34m2 20c-.19-6.09 4.82-12.04 2-18 7.31-1.81 4.22 17.76-2 18m17-11c.6 10.07.26 22.79-9 28 3.74-7.5 5.02-21.21 9-28Z"/>
  <path fill="none" fill-opacity="0" stroke="#080706" stroke-width=".3" d="M210 337c-5.43-8.67-6.56-22.39-16-27 5.76 7.9 6.69 24.72 16 27Z"/>
  <path fill="none" fill-opacity="0" stroke="#13110E" stroke-width=".3" d="M161 314c-4.37 1.29-4.66 11.08 1 10-.38-3.3.9-7.1-1-10Z"/>
  <path fill="none" fill-opacity="0" stroke="#0B0907" stroke-width=".3" d="M245 314c1.04 18.61 13.88 12.83 0 0Z"/>
  <path fill="none" fill-opacity="0" stroke="#090806" stroke-width=".3" d="M226 382c-24.83-13.23-19.97-47.54-41-66 14.89 18.99 13.5 59.47 41 66Z"/>
  <path fill="none" fill-opacity="0" stroke="#080605" stroke-width=".3" d="M244 370c-23.53-10.59-15.83-44.15-39-54 18.15 13.9 12.98 47.56 39 54Z"/>
  <path fill="none" fill-opacity="0" stroke="#CEBA9D" stroke-width=".3" d="M129 333c2.98-4.21 5.6-9.18 8-14-3.48 3.79-6.27 9.06-8 14Z"/>
  <path fill="none" fill-opacity="0" stroke="#090706" stroke-width=".3" d="M144 319c-4.96 9.44-13.12 23.99-5 34-1.64-11.29 4.51-22.16 5-34Z"/>
  <path fill="none" fill-opacity="0" stroke="#050404" stroke-width=".3" d="M146 339c6.22-.24 9.31-19.81 2-18 2.82 5.96-2.19 11.91-2 18ZM163 328c-3.98 6.79-5.26 20.5-9 28 9.26-5.21 9.6-17.93 9-28Z"/>
  <path fill="none" fill-opacity="0" stroke="#090706" stroke-width=".3" d="M212 385c-11.97-16.64-9.86-43.61-29-56 15.25 14.59 12.17 44.48 29 56Z"/>
  <path fill="none" fill-opacity="0" stroke="#0F0D0B" stroke-width=".3" d="M236 344c-.08-3.44-3.2-7.88-7-7 1.16 2.8 3.24 7.45 7 7Z"/>
  <path fill="none" fill-opacity="0" stroke="#0F0D0A" stroke-width=".3" d="M276 353c-5.21-2.66-7.81-15.17-14-14 4.36 4.91 5.62 14.76 14 14Z"/>
  <path fill="none" fill-opacity="0" stroke="#0A0807" stroke-width=".3" d="M195 388c-1.14-15.08-7.83-34.67-14-47 2.82 16.34 7.18 32.24 14 47Z"/>
  <path fill="none" fill-opacity="0" stroke="#E4D1B6" stroke-width=".3" d="M126 355c1.37-2.74-1.63-7.75-2-11-1.09 4.26 1.46 7.3 2 11Z"/>
  <path fill="none" fill-opacity="0" stroke="#FDFFFD" stroke-width=".3" d="M398 354c-3.18.53-7.57-1.13-10 1 3.18-.53 7.57 1.13 10-1Z"/>
  <path fill="none" fill-opacity="0" stroke="#E4D2BA" stroke-width=".3" d="M430 354h-14c3.53 1.71 10.4 1.59 14 0Z"/>
  <path fill="none" fill-opacity="0" stroke="#0E0C0A" stroke-width=".3" d="M246 365c-.59-3.93-4.48-11.48-9-9 3.28 2.71 4.02 9.24 9 9Z"/>
  <path fill="none" fill-opacity="0" stroke="#0B0907" stroke-width=".3" d="M174 357c-7.57-.23-2.82 12.4 2 13-.41-4.44-2.94-8.23-2-13Z"/>
  <path fill="none" fill-opacity="0" stroke="#070605" stroke-width=".3" d="M225 365c-.07-3.84-3.03-8.01-7-8 .33 3.37 3.16 8.25 7 8Z"/>
  <path fill="none" fill-opacity="0" stroke="#3D3731" stroke-width=".3" d="M442 360c-17.36-2.54-41.74-2.25-59 3 18.92-3.78 40.13-.38 59-3Z"/>
  <path fill="none" fill-opacity="0" stroke="#3E3932" stroke-width=".3" d="M388 364c-16.21-1.37-34.63 11.83-44 20 3.02-.74 4.92-.11 8 0-1.57 2.66-6.36-.59-8 2 2.52.47 6.23-1.03 8 1-4.23-.6-7.99.81-12 1-.11-4.37-1.29-3.78-5-2 6.25 9.14 35.21 11.85 37-2h10c-6.77 4.58 7.33.58 10-2-2.68-1.33.21-7.26 4-6-4.22 11.44 14.68-5.57 12 8-5.03-3.13-10.13-.09-8 6-3.85 1.21-3.76-1.99-5-4-3.42-.17-3.4 3.05-4 5-1.73-2.7-6.59-1.11-10 1 5.92 1.79 19.73-5.08 19 4-6.02 1.84-19.54-4.16-20 4-3.25-.22-9.63 1.5-8-4-4.4-.55-6.75 1.47-4 5-6.48-.86-12.26 1.13-18 3 18.76-.36 45.1 3.54 61-4 5.61 10.87 34.56 2.24 37-4 6.52.81 18.5 3.89 20-3 4.1 3.47 10.72-.45 15-3-4.5-8.52-26.89-21.98-27-11-3.74 1.17-4.34-3.19-8-2-.01 4.39-7.05.73-5 7-1.87-7.57-6.94 1.92-13 0 1.32 2.19 1.61 1.84 2 5-2.13-.25-10.46 1-6-2-6.21.57-9.95 3.14-2 4-3.73-1.04-10.52 3.82-12-1 .69-1.41 3.47 3.24 5 0-2.29-.45-5.69-2.17-5-5 1.59 2.88 7.97.16 8-4 5.01 3.33 19.33-3.36 26-9-2.71-2.09-1.24-5.69-3-9-3.08 2.24 3.65 10.63-3 10 1.72-19.76-34.5-6.73-48-9 15.09 2.73 32.27-.8 47 2-20.51-.66-42.24 1.33-62-1 3.51-.55 8.24 1.16 11-1m-20 12c-2.43 2.13-6.82.47-10 1 4.63 2.34-3.81 3.22-2-1h12m100 3c-2.35 2.49-9.79-1.3-8 5-10.38-1.96 2.91-7.5 8-5m-30 21c-3.2 3.11-10.41 2.6-14 1 4.01-1.11 9.1-.14 14-1Z"/>
  <path fill="none" fill-opacity="0" stroke="#474038" stroke-width=".3" d="M153 370c1.44-.06.74 1.92 2 2-.28-1.49.02-3.38 2-3-.52 2.23 1.54 3.73 1 6 2.51-2.04-1.21-5.38-1-8-1.44.85-3.4 1.18-4 3Z"/>
  <path fill="none" fill-opacity="0" stroke="#070504" stroke-width=".3" d="M171 368c-3.77 6.13-2.29 24.41 4 30-1.09-10.07-2.03-20.18-4-30Z"/>
  <path fill="none" fill-opacity="0" stroke="#050403" stroke-width=".3" d="M155 372c-.01 4.81.7 13.69 7 13-1.94-2.88-2.41-6.47-4-10 .54-2.27-1.52-3.77-1-6-1.98-.38-2.28 1.51-2 3Z"/>
  <path fill="none" fill-opacity="0" stroke="#CBB696" stroke-width=".3" d="M131 398c-5.39-6.08-9.06-13.5-8-22-3 7.48 1.53 17.19 8 22Z"/>
  <path fill="none" fill-opacity="0" stroke="#131111" stroke-width=".3" d="M368 376h-12c-1.81 4.22 6.63 3.34 2 1 3.18-.53 7.57 1.13 10-1Z"/>
  <path fill="none" fill-opacity="0" stroke="#070505" stroke-width=".3" d="M149 377c-6.68 4.69-3.16 21.86 5 24-2.39-7.64-6.97-14.86-5-24Z"/>
  <path fill="none" fill-opacity="0" stroke="#0D0B08" stroke-width=".3" d="M184 396c-2.99-6.08-2.89-13.59-7-19-1.48 3.88-.62 20.61 7 19Z"/>
  <path fill="none" fill-opacity="0" stroke="#D0BC9D" stroke-width=".3" d="M484 385c-2.1-2.98-5.04-5.79-8-8 1.33 3.04 5.26 5.48 8 8Z"/>
  <path fill="none" fill-opacity="0" stroke="#131111" stroke-width=".3" d="M468 379c-5.09-2.5-18.38 3.04-8 5-1.79-6.3 5.65-2.51 8-5Z"/>
  <path fill="none" fill-opacity="0" stroke="#0A0807" stroke-width=".3" d="M132 380c-6.64 1.27-.28 13.99 5 15 .02-5.62-5.95-9.11-5-15Z"/>
  <path fill="none" fill-opacity="0" stroke="#020101" stroke-width=".3" d="M242 383c-.07 3.74.59 8.31-2 11-.55 4.84-2.55 9.19-3 14 5.81.08 3.57-8.59 8-11 .22-.38 0-1.5 0-2v-13c-1.18-.15-2.06.43-3 1Z"/>
  <path fill="none" fill-opacity="0" stroke="#B6A282" stroke-width=".3" d="M245 395c2.21-3.42.42-8.82 1-13h-1z"/>
  <path fill="none" fill-opacity="0" stroke="#FDFFFD" stroke-width=".3" d="M245 395c0 .5.22 1.62 0 2 2.69-.96 2.83-11.41 1-15-.58 4.18 1.21 9.58-1 13Z"/>
  <path fill="none" fill-opacity="0" stroke="#403A33" stroke-width=".3" d="M240 394c2.59-2.69 1.93-7.26 2-11-1.91 2.85-.7 7.6-2 11Z"/>
  <path fill="none" fill-opacity="0" stroke="#3A352F" stroke-width=".3" d="M379 388c-1.25-2.22-4.74.12-6 1 1.47 2.47 3.89-1.58 6-1Z"/>
  <path fill="none" fill-opacity="0" stroke="#3D3731" stroke-width=".3" d="M336 392c-4.28.92-3.97-1.04-6-3-2.86 1.66-1.88 3.04-3 7-.77-2.17-.22-3.26-3-4-2.79 3.5-8.07 4.17-12 6 .03 4.35 6.41.16 8 3-5.8 1-15.68-1.13-17 5 6.21-.24 17.89-2.84 19 2-.02-5.11.68-2.94 2 0-2.37-5.9 10.41-5.77 8 0 1.44-2.03 2.62-1.35 5-2-1.61-4.36-.83-9.28-1-14m-4 8c-8.91 1.37 1.27-8.98 0 0Z"/>
  <path fill="none" fill-opacity="0" stroke="#403A33" stroke-width=".3" d="M380 392c-2.56.66-4.51 2.43-7 3 1.59 1.62 8.13.49 7-3Z"/>
  <path fill="none" fill-opacity="0" stroke="#3F3932" stroke-width=".3" d="M484 395c-12.68 5.93-26.65 7.74-40 10 1.57 2.66 6.36-.59 8 2-2.98-.68-9.63 3.74-9-2-6.48 3.69-14.29 2.65-22 4 4.98-.45 4.45 8.47-1 7 .28-3.07.44-7.46-4-6 3.26 6.86-8.82 4.56-1 1-5.6 1.42-21.33 1.4-20 5-3.97.18-7.86-1.75-11 1 5.18.61 11.58-1.25 16 1-4.33.87-22.87-2.01-17 2-4.6 1.63-9.69.27-14 1 2.28 3.83 8.25.42 11 3-16.74-3.28-26.13 4.73-43 5 .48 2.22-1.03 7.22-5 6 1.83 1.55 5.43.99 4 5-7.06.69-17.2-2.45-20 4 .78-2.5-1.4-5.03 0-7-6.14 3.77-18.37 4.01-20 11-2.47-.9-4.58-1.03-7 0-.29-2.67 2.83-5.43 0-7 3.5 1.17 12.38-2.73 7-5 3.84-1 4.07 1.29 6 2 1.99-2.77 2.42-6.04 2-10 4.67-.82 6.21 4.86 4 7 4.34-2.67 9.26-3.58 14-5-8.55-.1-2.8-4.78 2-6 5.13 5.84 40.31-1.88 44-12 6.65 3.99 17.72-.45 26-3-12.98 2.01-42.65-9.35-44 7-2.36-.15-7.14 1.01-6-3 10.2-1.55-3.42-9.19 0-3-4.57 1.67-8.1 1.64-13 2 1.53 5.01-4.53.71-4 4 2.85.5 6.9-1.08 9 1-5.98.35-12.41-.88-18 1 6.77 5.64-15.68-1.64-6 4-6.11 2.51-19.16-1.7-20 6-12.94-3.54-30.19 2.56-41 8 11.34-2.41 24.22.28 37 1-12.19 2.99-27.74-.99-40 2 13.51.66 28.24-1.32 41 1h-49c1.95 5.43-6 2.65-4 8-5.61 1.39-10.58-1.34-6-6-5.41-.06-8.47 2.59-14 2-.83-6.81 10.99-3.87 8-12 3.85-1.21 3.76 1.99 5 4 19.78-5.4 33.33-10.64 50-14-14.24 0-31.08-2.33-46 2-1.55 1.83-.99 5.43-5 4-1.87-5.47-2.5-11.36-2-18-5.8.05-.57 3.49-6 4 7.49.7-.71-.13-1 3 2.59 2.39 3.88-.62 6-1 .53 2.68-3.48 3.34-3 6 3.42-2.82 2.12-.52 3 2-3.42.14-5.86-.88-9 0-1.91 3.12-4.52 8.39-8 6 .41 6.16 1.33 12.45-1 18-.47-2.52 1.03-6.23-1-8-.47 2.52 1.03 6.23-1 8-.47-2.52 1.03-6.23-1-8-2.15 6.53-5.13 13.53-2 20 .47-2.52-1.03-6.23 1-8v16c-4.26 1.24-2.03-3.63-4-5 .17 4.9-.52 5.22-2 1 .33 2.98-.82 6.42 1 9 26.81-2.1 54.12.74 82-2-2.46-1.87-5.09-.92-1-3-5.11.17-8.19 3.75-7-4 3.26.22 9.63-1.5 8 4 5.48 1.49 10.41.26 16 0-1.49-5.56 4.67-3.78 8-4-5.46 4.3 39.47-1.1 36-16 4.46-1.3 4.35 2.85 4 6 8-1.93 15.72-5.74 24-7 .33-6.78-2.9-18.41 8-15-1.7 4.88 2.9 8.95 0 12 12.33-3.96 23.82-10.33 37-12 .72-3.94-5.75-.16-5-4 18.16.42 33.38-1.36 51-6-4.71-.87 1.9-5.84 5-6-3.67 7.07 8.65 3.78 4 1 9.99.37 20.03-3.61 30-6-11.33-7.54-31.46.24-45-4 8.84-.65 18.91 1.31 27-1-7.84-.64-16.91 1.3-24-1 1.71-.64 12.2-5.23 8-1h36c-1.57-3.92 2.85-3.37 3-6-2.41-.87-8.01-.87-4 2-6.92-1.71-14.64-.93-21 0 .73-3.38 6.59-.7 6-5m-4 7c-2.94 1.57-9.13 1.71-12 0 2.94-1.57 9.13-1.71 12 0m-120 25c.65 3.1-.23 6.07-4 5-.55-2.37 1.53-5.14 4-5m-120 1c.82 3.95-3.92 5.39-7 5 3.84-.5 1.94-6.52 7-5m50 0c-.68 10.11-19.73 6.41-26 4 7.45-3.11 14.12 1.6 23 0-2.76-2.16-7.49-.45-11-1 4.03-2.44 10.62.61 14-3m98 4c1.12 9.08-9.14-1.01 0 0m4 0c8.91-1.36-1.27 8.98 0 0m-170 4c-1.15 2.79-3.66 1.15-6 1 .43 3.69-7.01 4.26-4 11-1.62-3.34-1.18-8.1-2-12h12m-16 16v16c-1.61-4.26-1.7-11.81 0-16m2 0v12h16c.3 7.81-11.82 2.39-17 4 .65-5.16-1.31-11.66 1-16Z"/>
  <path fill="none" fill-opacity="0" stroke="#131111" stroke-width=".3" d="M332 400c1.27-8.98-8.91 1.37 0 0Z"/>
  <path fill="none" fill-opacity="0" stroke="#403A33" stroke-width=".3" d="M356 398c-1.38-3.27-6.17-1.23-8-1 2.26 3.97 5.13-.87 8 1Z"/>
  <path fill="none" fill-opacity="0" stroke="#3D3831" stroke-width=".3" d="M520 405c-3.03-3.41-12.08 2.79-13-6-2.97 2.78-6.04 4.9-7 9 4.94 1.92 3.27-5.32 8-4 1.31 3.32-3.16 3.48-3 6 5.27-2.22 9.19-4.55 15-5Z"/>
  <path fill="none" fill-opacity="0" stroke="#DAC5A5" stroke-width=".3" d="M199 405c3.09-3.9 9.34-1.28 12-5-3.78 2.27-10.54-.21-12 5Z"/>
  <path fill="none" fill-opacity="0" stroke="#131111" stroke-width=".3" d="M438 400c-4.9.86-9.99-.11-14 1 3.59 1.6 10.8 2.11 14-1Z"/>
  <path fill="none" fill-opacity="0" stroke="#0C0A08" stroke-width=".3" d="M185 409c-.59-3.89-6.2-7.04-10-8 .14 4.47 5.92 7.57 10 8Z"/>
  <path fill="none" fill-opacity="0" stroke="#131111" stroke-width=".3" d="M480 402c-2.87-1.71-9.06-1.57-12 0 2.87 1.71 9.06 1.57 12 0Z"/>
  <path fill="none" fill-opacity="0" stroke="#3C3730" stroke-width=".3" d="M302 407c1.13-5.58-8.97-1.09-7 2 1.96-.99 3.41-3.73 7-2Z"/>
  <path fill="none" fill-opacity="0" stroke="#3A352F" stroke-width=".3" d="M413 406c-5.98-4.03-5.87 4.49 0 0Z"/>
  <path fill="none" fill-opacity="0" stroke="#3C3630" stroke-width=".3" d="M320 407c-9.95-2.52-27.19 8.74-29 2-6.19.71-4.95.9-3 5-8.37-1.7-14.37-.78-22 3 5.69 4.38 19.19 3.81 24-1-2.29 8.45 16.36 2.85 14-4 4.76-1.91 2.89 3.91 6 4 3.94-4.68 13.65-2.61 16-8-2.08.79-7.13 3.29-6-1Z"/>
  <path fill="none" fill-opacity="0" stroke="#403A33" stroke-width=".3" d="M403 409c-1.66-1.7-6.94-1.86-8 1 2.98-.91 4.97-.44 8-1Z"/>
  <path fill="none" fill-opacity="0" stroke="#DDCBAF" stroke-width=".3" d="M206 426c2.24-7.2 9.49-11.6 14-17-5.72 4.52-12.97 9.25-14 17Z"/>
  <path fill="none" fill-opacity="0" stroke="#D3BFA1" stroke-width=".3" d="M489 418c4.91-.7 9.65-3.47 14-5-5.07.12-9.81 2.98-14 5Z"/>
  <path fill="none" fill-opacity="0" stroke="#B6A282" stroke-width=".3" d="M163 415c2.23 1.53 8.41 2.17 10-1-2.93 1.84-6.66.68-10 1Z"/>
  <path fill="none" fill-opacity="0" stroke="#403A33" stroke-width=".3" d="M374 420c2.15.62 7.14-.41 4-3-.51 2.95-3.49.1-4 3Z"/>
  <path fill="none" fill-opacity="0" stroke="#3B352F" stroke-width=".3" d="M266 419c-3.97-2.07-9.58-.95-13 1 4.59-.97 9.15.97 13-1Z"/>
  <path fill="none" fill-opacity="0" stroke="#131111" stroke-width=".3" d="M360 427c-2.47-.14-4.55 2.63-4 5 3.77 1.07 4.65-1.9 4-5ZM240 428c-5.06-1.52-3.16 4.5-7 5 3.08.39 7.82-1.05 7-5ZM290 428c-3.38 3.61-9.97.56-14 3 3.51.55 8.24-1.16 11 1-8.88 1.6-15.55-3.11-23 0 6.27 2.41 25.32 6.11 26-4Z"/>
  <path fill="none" fill-opacity="0" stroke="#B6A282" stroke-width=".3" d="M443 429c2.85-.5 6.9 1.08 9-1-2.85.5-6.9-1.08-9 1Z"/>
  <path fill="none" fill-opacity="0" stroke="#131111" stroke-width=".3" d="M388 432c-9.14-1.01 1.12 9.08 0 0ZM392 432c-1.27 8.98 8.91-1.36 0 0Z"/>
  <path fill="none" fill-opacity="0" stroke="#3C3630" stroke-width=".3" d="M327 433c-2.57 1.07-5.08 2.3-8 2 1.69 1.63 9.22 2.32 8-2Z"/>
  <path fill="none" fill-opacity="0" stroke="#C6B292" stroke-width=".3" d="M196 447c3.04-3.26 3.43-8.68 5-13-2.88 3.58-3.35 8.64-5 13Z"/>
  <path fill="none" fill-opacity="0" stroke="#131111" stroke-width=".3" d="M222 436h-12c.82 3.9.38 8.66 2 12-3.01-6.74 4.43-7.31 4-11 2.34.15 4.85 1.79 6-1Z"/>
  <path fill="none" fill-opacity="0" stroke="#403A33" stroke-width=".3" d="M236 440c-9.51-1.46.16 8.86 0 0Z"/>
  <path fill="none" fill-opacity="0" stroke="#131111" stroke-width=".3" d="M206 452c-1.7 4.19-1.61 11.74 0 16zM208 452c-2.31 4.34-.35 10.84-1 16 5.18-1.61 17.3 3.81 17-4h-16z"/>
  <path fill="none" fill-opacity="0" stroke="#403A33" stroke-width=".3" d="M200 454c-2.2 1.48-2.96 6.14-1 8 .73-2.61 1.35-5.14 1-8Z"/>
  <path fill="none" fill-opacity="0" stroke="#E0CDB2" stroke-width=".3" d="M306 470c4.13.16 8.71-.26 12-2-4.02.34-8.63.52-12 2Z"/>
  <path fill="none" fill-opacity="0" stroke="#C7B18F" stroke-width=".3" d="M212 477c22.68-3.19 48 1.66 70-3-22.69 3.02-48.49-1.87-70 3Z"/>
  <path fill="#CEBB9E" stroke="None" d="M267 45c6.1-.27 12.67-1.2 18-3-6.13.24-12.61 1.24-18 3Z"/>
  <path fill="#050404" stroke="None" d="M267 45c-4.88-.06-9.08 2.36-14 2-4.08 2.34-9.5 2.98-14 5-15.97 4.3-34.1 9.32-50 15-3.34 1.63-7.14 4.02-11 5-27.6 9.2-22.78 37.77-34 57-2.42 19.99-35.59 49.1-9 63-10.08 17.17-16.36 36.6-24 55-.32 3.54-2.27 7.6 0 11 2.6 5.4 10.5 7.41 15 9-.73 2.03-3.19 2.96-4 5-.77 3.5 1.86 9.02-2 11 2.13 5.69 6.72 12.52 14 11 1.72 4.09 5.54 7.22 9 10-4.62 4.03-2.72 10.52-6 15-2.4 4.82-5.02 9.79-8 14-.03 4.34-3.3 6.97-5 11 .37 3.25 3.37 8.26 2 11-.57 7.13-1.94 14.02-3 21-1.06 8.5 2.61 15.92 8 22 6.77 10.72 19.72 16.46 32 17 3.34-.32 7.07.84 10-1 7.09 3.53 12.24-2.22 19-2 1.13-3.21 3.79-5.81 7-7 1.46-5.21 8.22-2.73 12-5 4.11-.56 3.99-5.25 7-7 2.14 3.89 2.77 8.88 5 13-1.36.42-2.33 1.8-3 3-4.51 5.4-11.76 9.8-14 17 .01 3.27-2.36 6.22-5 8-1.57 4.32-1.96 9.74-5 13-4.6 13.18-5.3 35.92 16 30 21.51-4.87 47.31.02 70-3 8.12-.94 15.7-3.87 24-4 3.37-1.48 7.98-1.66 12-2 40.94-12.46 81.39-32.57 125-39 2.1-2.08 6.15-.5 9-1 12.35-3.3 24.2-8.24 37-10 4.19-2.02 8.93-4.88 14-5 40.06-2.76 6.31-21.21-15-23 .12-2.35-2.29-3.81-4-5-2.74-2.52-6.67-4.96-8-8-8.11-7.85-15.93-9.56-26-5-1.91-10-7.14-21.68-20-18-3.6 1.59-10.47 1.71-14 0-3.6-12-8.99-22.84-13-35-2.08-3.6-2.19-7.79-2-12-16.25-45.16 36.48-61.73 47-98 1.2-10.96 1.85-23.06 0-34 .04-31.43-25.19-54.33-30-84-2.03-4.03-3.98-7.98-6-12 0 0 .22-.64 0-1-3.13-2.41-5.3-6.07-8-9-14.96-15.54-36.26-22.24-57-25-5.64-1.69-12.87.13-18-2h-44c-5.33 1.8-11.9 2.73-18 3Z"/>
  <path fill="#DECCB2" stroke="None" d="M347 44c-4.89-3.16-12-1.65-18-2 5.13 2.13 12.36.31 18 2Z"/>
  <path fill="#D9C29E" stroke="None" d="M413 113c5.91-10.5-19.18-42.31-35.77-50.23C352.76 49.95 326.22 41.94 297 45c-47.88 8.82-112.55 10.71-140.23 54.23 27.04 2.69 43.08 27.98 72.23 24.77-20.87-11.2-39.96-29.16-63-35 26.34-1.34 49.86 29.3 74 36-11.32-18.07 18.95-1.79 29-4-1.08-2.22-2.54-4.32-2-7 28.02 3.16 58.52 2.05 83-5 7.18-.59 13.28 2.92 20 4 5.39-10.99 20.12-.92 29 0 1.36-6.5 8.82.08 13-1-14.13-36.28-58.1-40.33-84-63 29.9 17.46 78.05 27.47 85 64Z"/>
  <path fill="#D5C1A3" stroke="None" d="M239 52c4.5-2.02 9.92-2.66 14-5-4.87.81-10.27 1.73-14 5Z"/>
  <path fill="#D7C19F" stroke="None" d="M419 105c-4.22-29.61-35.94-57.16-66-55 30.82 5.47 50.84 28.99 66 55Z"/>
  <path fill="#070605" stroke="None" d="M397 110c-30.9-26.15-68.2-53.08-110-59 40.04 10.7 76.44 37.49 110 59Z"/>
  <path fill="#080605" stroke="None" d="M373 105c-39.6-17.02-75.33-46.93-120-48 40.41 4.22 84.31 39.03 120 48Z"/>
  <path fill="#0A0807" stroke="None" d="M226 62c5.37 9.98 40.55 16.28 57.78 25.22 20.9 5.97 39.36 23.86 61.22 21.78-38.96-13.6-78.97-34.19-119-47Z"/>
  <path fill="#D5C1A4" stroke="None" d="M178 72c3.86-.98 7.66-3.37 11-5-4.07.27-7.89 2.81-11 5Z"/>
  <path fill="#070605" stroke="None" d="M301 114c-36.17-6.58-63.31-43.41-99-46 35.74 8.87 62.29 44.59 99 46Z"/>
  <path fill="#C5B293" stroke="None" d="M412 78c-2.05-3.37-4.51-6.77-8-9 2.7 2.93 4.87 6.59 8 9Z"/>
  <path fill="#070605" stroke="None" d="M266 117c-30.08-4.5-52.21-46.63-81-40 31.42.54 52.18 42.65 81 40Z"/>
  <path fill="#D5C1A4" stroke="None" d="M418 91c.19-3.2-3.09-9.2-6-12 2.02 4.02 3.97 7.97 6 12Z"/>
  <path fill="#D8C2A0" stroke="None" d="M176 123c1.29.94 4.16 1.89 5 0-6.36-4.41-15.03-7.53-20-15 19.25 9.6 41.06 24.26 53 43-6.36-25.37-32.53-47.25-59-48 .24 9.06 13.29 14.89 21 20Z"/>
  <path fill="#DCC5A1" stroke="None" d="M157 367c-.21 2.62 3.51 5.96 1 8 1.59 3.53 2.06 7.12 4 10-6.3.69-7.01-8.19-7-13-1.26-.08-.56-2.06-2-2-4.77.28-11.13-2.11-11 6-7.94 1.36-8.21-10.85-15-11-3.36 14.93 1.37 32.54 16 39-.34-3.57-8.03-9.95 0-10 1.11 8.78 8.83 19.47 19 18-.13-3.2-3.04-5.09-4-8 7.74 7.89 28.53 12.89 38-1-.34-4.11-5.29-6.11-6-10 4.76-1.13 5.47 4.3 8 7 3.46-2.6 7.81-2 12-2 .31-3.39-4.26-3-5-6 3.3-2.84 5.39 1.53 8 3 4.81-9.12 17.05-9.48 22-17-2.58-1.37-6.26-3.27-7-6 12.66 7.37 26.49-2.78 39-8-2.61-3.12-15.07 2.22-12-5 13.15 4.27 34.72-6.42 35-20-4.54 2.89-12.44 3.27-16-1 14.88 3.41 24.36-7.11 25-22-5.41-7.27-13.63-9.79-21-13 9.12-4.06 15.31 4.69 22 8-2.72-7.68.08-16.13 0-24-4.32.54-7.88-1.85-12-2 1.09-6.03 8.37-.3 12 0-3.66-14.32-18.54-25.01-28-36 12.16-2.9 13.28 16.13 23 20-6.37-11.09-11.97-23.17-11-37-9.72.43-18.29-11.01-20-20 6.15 5.37 9.97 16.13 20 18-.86-6.63-.52-13.55-2-20-8.86 4.93-17.66-5.97-22-13 8.23.87 9.15 11.66 18 12-34.36-20.63 15.5-54.85 33.75-32.75 22.17 27.74-3.64 61.23-.75 85.75 32.26 2.45 65.39-6.35 95-5 50.61-33.67 46.06-98.44 15-142-13.82 6.46-40.32-10.16-44 2-8.39-.41-15.12-2.82-23-5-6.01 11.52-34.14-3.52-41 8-14.81.94-28.78-1.61-43-3 1.08 2.22 2.54 4.32 2 7-19.47-8.41-35.77 6.09-28.07 24.92 17.5 27.67 4.45 68.94 27.07 90.08 28.24 6.75-16.95 4.49-16-14-19.42 8.71 5.26 22.02 12 30-10.39-3.23-17.48-12.57-26-19-11.88 15.94 10.4 34 23 41-12.16 2.25-30.73-19.78-30-34-15.92 17.15.97 44.82 10 61-13.95-10.36-19.98-31.02-20-49-2.27 3.32-1.32 6.33-1 10-6.45 20.53-19.27 51.18-51 38 7.05 20.29 6.65 49.88-15 64Z"/>
  <path fill="#EADAC3" stroke="None" d="M131 168c.04 4.09-.41 8.25 1 12 16.69 17.37-11.97 37.88-13.08 57.92-18.01 28.78 23.3 26.43 40.08 30.08-.05-.5 0-1 0-1-7.47-3.31-15.43-4.78-24-4 14.13 0 53.2-1.22 18-14 9.2-7.15 24.17 4.83 18 16-.67 1.2-1.64 2.58-3 3-1.73 1.23-5 1.91-7 1 4.96 8.51 16.97 6.97 23.99 14.01 16.14 9.49 3.62-21.89 4.01-3.01-10.3.9-11.87-11.24-5-17-7.12-2.84-.94-9.23 2-2 11.34-6.74 24.02 3.04 29 13 2.79-12.02 9.12-32.27 21-34-.89-2.96-1.11-6.07-2-9 4.57 2.83 5.77 1.54 11 2 24.72-31.82-10.88-68.85-5-105h-10c-2.02-.46-9.03 1.05-8-1 .23-.35 0-1 0-1-6.97-1.18-13.9-2.39-21-3 16.83 10.86 19.22 43.32-.75 16.75-13.82-8.65-33.81-22.55-46.33-21.83-8.31 16.82-13.15 34.29-22.92 50.08Z"/>
  <path fill="#544C40" stroke="None" d="M181 123c-.84 1.89-3.71.94-5 0 2.04 3.15 6.98 2.04 10 4 .44-3.26-3.25-2.7-5-4Z"/>
  <path fill="#B6A282" stroke="None" d="M222 127c2.52.56 6.3-1.19 8 1h6c-3.91-1.8-9.23-2.09-14-2 0 0 .23.65 0 1Z"/>
  <path fill="#FDFFFD" stroke="None" d="M230 128c-1.7-2.19-5.48-.44-8-1-1.03 2.05 5.98.54 8 1Z"/>
  <path fill="#050403" stroke="None" d="M154 154c.5-.02 1.5 0 2 0 16.31-6.14 39.38 4.76 53-1-20.31-1.75-52.84-11.31-65 4 3.28-1.22 6.47-2.78 10-3Z"/>
  <path fill="#FDFFFD" stroke="None" d="M156 154c-.5 0-1.5-.02-2 0 .67 2.67 8.48.96 11 0zM185 154c-2.85.5-6.9-1.08-9 1 2.85-.5 6.9 1.08 9-1Z"/>
  <path fill="#030202" stroke="None" d="M223 188c5.33-6.15 3.11-20.9-.91-27.92-4.18 7.2 3.18 19.23.91 27.92Z"/>
  <path fill="#403A33" stroke="None" d="M132 180c-1.41-3.75-.96-7.91-1-12-1.74 2.97-1.86 9.38 1 12Z"/>
  <path fill="#040303" stroke="None" d="M163 213h18c8.03-2.15 20.21-5.02 21-15-5.91-1.15-9.2-8.28-16-8-6.83-.66-14.99 1.32-21-1-2.22.17-6.11-.19-6-3 21.01-10.46 42.25 5.41 62 11-8.88-9.54-23.47-18.41-36.78-23.22-13.32-9.57-37.35 14.83-42.22-2.78-11.44 5.83 2.76 29.42 13 16 .47 4.65 5.04 5.79 9 6-1.54 5.19-2.49 11.27 1 16-1.29.43-4.2 2.99-2 4Z"/>
  <path fill="#EADAC4" stroke="None" d="M287 214c2.16 2.76.45 7.49 1 11v1c.25.25 1 0 1 0 1.62 4.92 1.69 13.15 0 18 9.87 25.88 39.33-25.67 26.21-42.77C318.8 172.79 285.63 163.4 274 189c1.07-2.57 2.3-5.08 2-8-3.54 1.81-7.23 4.54-9 8 4.66 5.8 12.27 10.87 15 18 19.16-9.86 30.6 6.01 3 1-.16 2.29 2.14 3.75 2 6Z"/>
  <path fill="#D8C4A5" stroke="None" d="M201 185c-17.81-15.98-38.97-4.55-59-5 8.41 13.44 42.07-9.26 59 5Z"/>
  <path fill="#D5BE9B" stroke="None" d="M448 209c2.86-9.84 3.52-24.16 0-34 1.85 10.94 1.2 23.04 0 34Z"/>
  <path fill="#CEBB9D" stroke="None" d="M132 187c-1.03-2.9-3.09-7.09-6-8 1.27 3.17 2.41 6.89 6 8Z"/>
  <path fill="#060504" stroke="None" d="M312 217v-12c-2.28-11.96-18.63-21.44-29-15 1.13 3.82 4.34 2.2 6 0 21.58 1.48 24.63 27.16 14 42 7.09 2.36 7.82-9.93 9-15Z"/>
  <path fill="#FDFFFD" stroke="None" d="M167 189h18c-4.85-1.69-13.07-1.62-18 0Z"/>
  <path fill="#B6A282" stroke="None" d="M186 190c-.21-.03-.7-.78-1-1h-18c-.5 0-1.5-.02-2 0 6.01 2.32 14.17.34 21 1Z"/>
  <path fill="#B5A282" stroke="None" d="M183 208c4.92-10.75-11.95-20.79-15-10 4.87-3.57 9.84 1.84 8 7-3.21-.01-6.66.58-9-2 .6 8.52 10.47 5.78 16 5Z"/>
  <path fill="#F2EDE5" stroke="None" d="M198 199c-5.17.38-7.39-6.74-13-5-4.55 14.04 7.81 14.86 13 5Z"/>
  <path fill="#070605" stroke="None" d="M224 204c-3.94-3.62-15.91-9.38-19-3 6.37.39 13.02 4.34 19 3Z"/>
  <path fill="#070604" stroke="None" d="M151 199c-8.97 4.78-10.36 22.56-13.23 32.21 7.42-5.35 9.31-22.1 13.23-32.21Z"/>
  <path fill="#B6A282" stroke="None" d="M312 217s.65-.23 1 0v-12s-.91.2-1 0z"/>
  <path fill="#FDFFFD" stroke="None" d="M313 217c1.64-.14 1.63-9.56 0-12z"/>
  <path fill="#B6A282" stroke="None" d="M163 214h18s-.24-.8 0-1h-18s-.25.74 0 1Z"/>
  <path fill="#FDFFFD" stroke="None" d="M181 214h-18c4.85 1.69 13.08 1.62 18 0Z"/>
  <path fill="#B6A282" stroke="None" d="M288 225c-.55-3.51 1.16-8.24-1-11 .55 3.51-1.16 8.24 1 11Z"/>
  <path fill="#080706" stroke="None" d="M270 233c-.63-3.04-3.99-6.3-7-7-.29 3.47 3.55 7.25 7 7Z"/>
  <path fill="#B6A282" stroke="None" d="M289 244v-18s-.75.25-1 0c.62 5.84-1.27 12.91 1 18Z"/>
  <path fill="#FDFFFD" stroke="None" d="M289 244c1.69-4.85 1.62-13.08 0-18z"/>
  <path fill="#12100D" stroke="None" d="M258 240c.83-3.2-2.3-4.7-5-4-.27 2.71 2.96 3.7 5 4Z"/>
  <path fill="#D8C5AB" stroke="None" d="M111 258c-2.27-3.4-.32-7.46 0-11-2 2.5-3.74 8.92 0 11Z"/>
  <path fill="#040303" stroke="None" d="M159 267c4.1-.33 8.86 1.19 12-2 6.17-11.17-8.8-23.15-18-16 35.2 12.78-3.87 14-18 14 8.57-.78 16.53.69 24 4Z"/>
  <path fill="#060504" stroke="None" d="M254 252c-.66-2.6-5.26-6.04-8-4 1.7 2.42 4.81 4.5 8 4Z"/>
  <path fill="#EBDAC4" stroke="None" d="M303 301v5c1.54 2.28 1.72 7.79 0 10-.26.25-1 0-1 0 .78 45.11-47.2 55-79 73-2.88 11.95 8.83 19.49 7 31 68.36-1.4 115.62-62.54 183-65-7.97-22.07-20.31-44.58-18-69-.05-.49 0-1 0-1-1.52-1.96-1.72-7.11 0-9 .26-.25 1 0 1 0 1.16-6.13 3.79-12.54 8-17-.04-.13-1.5 0-2 0-2.28 1.54-7.79 1.72-10 0h-4c-6.96 1.64-13.61 4.41-21 5-.24.2 0 1 0 1-4.93 1.62-13.15 1.69-18 0h-1c-14.08 2.05-43.41 8.55-43-13-3.53 1.63-5.96 5.56-10 6 5.34 13.6 10.01 27.3 8 43Z"/>
  <path fill="#FDFFFD" stroke="None" d="M146 258c-3.18.53-7.57-1.13-10 1 3.18-.53 7.57 1.13 10-1Z"/>
  <path fill="#403A33" stroke="None" d="M388 259h14c.5 0 1.96-.13 2 0-4.19-1.7-11.74-1.61-16 0Z"/>
  <path fill="#FDFFFD" stroke="None" d="M402 259h-10c2.21 1.72 7.72 1.54 10 0Z"/>
  <path fill="#D9C3A2" stroke="None" d="M211 290c9.52-14.64-15.17-40.93-26-23 27.17 18.11-3.83 23.9-20.75 10.75-10.78-15.01-51.01-16.02-37.25 11.25 12.79 1.36 22.05 5.87 35 10-4.04-6.98 12.97 3.84 18 2-5.36-10.82 13.18 6.62 9-4 6.45 1.98 18.47 4.06 20-5-2.72-.25-8.43 3.28-9-1 3.9.49 7.06-1.71 11-1Z"/>
  <path fill="#070604" stroke="None" d="M198 279c5.82-1.89 3.64-12.95-2-15-1.91 4.86 4.43 8.99 2 15Z"/>
  <path fill="#090706" stroke="None" d="M290 294c-16.03-1.67-17.38-28.04-32-29 12.46 7.37 14.63 32.87 32 29Z"/>
  <path fill="#090806" stroke="None" d="M279 264c-8.02.61 1.73 9.7 5 11 1.38-4.89-5.17-6.45-5-11Z"/>
  <path fill="#B6A282" stroke="None" d="M348 265h19s-.24-.8 0-1c-6.18.63-13.58-1.28-19 1ZM159 267s-.05.5 0 1c.03.35.65.97 1 1 1.77-2.03 5.48-.53 8-1 1.36-.42 2.33-1.8 3-3-3.14 3.19-7.9 1.67-12 2Z"/>
  <path fill="#FDFFFD" stroke="None" d="M367 265h-18c4.85 1.69 13.07 1.62 18 0ZM160 269s.58-.19 1 0c2 .91 5.27.23 7-1-2.52.47-6.23-1.03-8 1Z"/>
  <path fill="#D2BE9F" stroke="None" d="M185 278c.99-2.74.37-7.73-1-10-4.5 2.26-.56 7.15 1 10Z"/>
  <path fill="#050404" stroke="None" d="M131 271c-9.57 4.31.76 21.01 9 18-5.93-4.29-10.81-10.57-9-18Z"/>
  <path fill="#E1D0B7" stroke="None" d="M120 283c3.86-1.98 1.23-7.5 2-11-2.68 2.65.58 7.93-2 11Z"/>
  <path fill="#0C0A08" stroke="None" d="M244 283c-.98-3.88-3.86-9.1-7-11-1.57 3.86 2.52 10.93 7 11Z"/>
  <path fill="#040303" stroke="None" d="M152 291c-3.94-6.29-13.23-12.03-18-17-2.11 10.63 10.76 14.15 18 17Z"/>
  <path fill="#030202" stroke="None" d="M178 289c-12-.44-21.59-8.45-29-15-1.28 11.97 20.37 21.78 29 15Z"/>
  <path fill="#080706" stroke="None" d="M199 284c3.08 8.48 13.04-7.88 6-10-1.73 3.14-.64 9.19-6 10Z"/>
  <path fill="#FDFFFD" stroke="None" d="M395 285v-9c-1.72 1.89-1.52 7.04 0 9Z"/>
  <path fill="#B6A282" stroke="None" d="M395 285s-.05.51 0 1c2.25-2.35.39-6.83 1-10 0 0-.74-.25-1 0z"/>
  <path fill="#070605" stroke="None" d="M227 300c-1.11-3.64-2.49-12.53-8-10 3.23 2.84 4.01 8.67 8 10Z"/>
  <path fill="#0D0B09" stroke="None" d="M194 291c-4.41 2.6-9.91-2.14-14 1 3.8 1.82 14.69 6.61 14-1Z"/>
  <path fill="#070605" stroke="None" d="M227 326c-5.77-9.8-4.38-25.49-12-35 1.67 10.99 1.91 27.52 12 35Z"/>
  <path fill="#080605" stroke="None" d="M276 329c-14.01-7.33-15.89-29.81-29-38 8.52 11.39 13.56 36.96 29 38Z"/>
  <path fill="#040303" stroke="None" d="M272 302c-.53-4.76-5.96-9.09-10-11 .37 5.08 7.15 7.86 10 11Z"/>
  <path fill="#DFCDB3" stroke="None" d="M164 305c-7.53-4.06-16.04-8.06-25-9 5.02 8.58 16.73 9.29 25 9Z"/>
  <path fill="#0B0908" stroke="None" d="M293 329c-1.27-13.83-25.51-14.65-29-28 1.7 16.65 20.39 17.17 29 28Z"/>
  <path fill="#403A33" stroke="None" d="M302 316s.74.25 1 0v-15c-2.31 4.01-.35 10.17-1 15Z"/>
  <path fill="#050403" stroke="None" d="M184 314c-2.02-2.34-3.03-10.74-8-8 2.67 2.86 2.3 9.5 8 8Z"/>
  <path fill="#0D0B09" stroke="None" d="M208 311c.53-3.22-2.62-8.04-6-5 1.8 1.85 2.9 5.68 6 5Z"/>
  <path fill="#D8C6AC" stroke="None" d="M158 308c-5.6-3.13-14.51-1.56-15 6 2.91-5.86 11.41-1.84 15-6Z"/>
  <path fill="#080705" stroke="None" d="M247 353c-.77-15.25-8.17-35.46-17-47 4.85 15.88 9.72 32.39 17 47Z"/>
  <path fill="#FCFFFD" stroke="None" d="M303 316c1.72-2.21 1.54-7.72 0-10z"/>
  <path fill="#C5B091" stroke="None" d="M403 319c-.01-2.75-.88-8.77-2-12-.19 4.21-.08 8.4 2 12Z"/>
  <path fill="#DAC4A1" stroke="None" d="M170 308c-21.33 1.98-46 22.16-40 44 1.68-2.51.04-8.12 5-7 2.12 7.41-5.74 10.16-7 16 5.57.77 7.33 6.82 11 10 3.9-14.1 9.51-28.93 6-5 2.95-1.13 4.11-3.6 7-5 3.35 1.8-2.34 3.23 0 5 19.86-11.61 24.98-36.7 18-58Z"/>
  <path fill="#080706" stroke="None" d="M210 337c-5.43-8.67-6.56-22.39-16-27 5.76 7.9 6.69 24.72 16 27Z"/>
  <path fill="#13110E" stroke="None" d="M161 314c-4.37 1.29-4.66 11.08 1 10-.38-3.3.9-7.1-1-10Z"/>
  <path fill="#0B0907" stroke="None" d="M245 314c1.04 18.61 13.88 12.83 0 0Z"/>
  <path fill="#090806" stroke="None" d="M226 382c-24.83-13.23-19.97-47.54-41-66 14.89 18.99 13.5 59.47 41 66Z"/>
  <path fill="#080605" stroke="None" d="M244 370c-23.53-10.59-15.83-44.15-39-54 18.15 13.9 12.98 47.56 39 54Z"/>
  <path fill="#CEBA9D" stroke="None" d="M129 333c2.98-4.21 5.6-9.18 8-14-3.48 3.79-6.27 9.06-8 14Z"/>
  <path fill="#090706" stroke="None" d="M144 319c-4.96 9.44-13.12 23.99-5 34-1.64-11.29 4.51-22.16 5-34Z"/>
  <path fill="#050404" stroke="None" d="M146 339c6.22-.24 9.31-19.81 2-18 2.82 5.96-2.19 11.91-2 18ZM163 328c-3.98 6.79-5.26 20.5-9 28 9.26-5.21 9.6-17.93 9-28Z"/>
  <path fill="#090706" stroke="None" d="M212 385c-11.97-16.64-9.86-43.61-29-56 15.25 14.59 12.17 44.48 29 56Z"/>
  <path fill="#0F0D0B" stroke="None" d="M236 344c-.08-3.44-3.2-7.88-7-7 1.16 2.8 3.24 7.45 7 7Z"/>
  <path fill="#0F0D0A" stroke="None" d="M276 353c-5.21-2.66-7.81-15.17-14-14 4.36 4.91 5.62 14.76 14 14Z"/>
  <path fill="#0A0807" stroke="None" d="M195 388c-1.14-15.08-7.83-34.67-14-47 2.82 16.34 7.18 32.24 14 47Z"/>
  <path fill="#E4D1B6" stroke="None" d="M126 355c1.37-2.74-1.63-7.75-2-11-1.09 4.26 1.46 7.3 2 11Z"/>
  <path fill="#FDFFFD" stroke="None" d="M398 354c-3.18.53-7.57-1.13-10 1 3.18-.53 7.57 1.13 10-1Z"/>
  <path fill="#E4D2BA" stroke="None" d="M430 354h-14c3.53 1.71 10.4 1.59 14 0Z"/>
  <path fill="#0E0C0A" stroke="None" d="M246 365c-.59-3.93-4.48-11.48-9-9 3.28 2.71 4.02 9.24 9 9Z"/>
  <path fill="#0B0907" stroke="None" d="M174 357c-7.57-.23-2.82 12.4 2 13-.41-4.44-2.94-8.23-2-13Z"/>
  <path fill="#070605" stroke="None" d="M225 365c-.07-3.84-3.03-8.01-7-8 .33 3.37 3.16 8.25 7 8Z"/>
  <path fill="#3D3731" stroke="None" d="M442 360c-17.36-2.54-41.74-2.25-59 3 18.92-3.78 40.13-.38 59-3Z"/>
  <path fill="#3E3932" stroke="None" d="M388 364c-16.21-1.37-34.63 11.83-44 20 3.02-.74 4.92-.11 8 0-1.57 2.66-6.36-.59-8 2 2.52.47 6.23-1.03 8 1-4.23-.6-7.99.81-12 1-.11-4.37-1.29-3.78-5-2 6.25 9.14 35.21 11.85 37-2h10c-6.77 4.58 7.33.58 10-2-2.68-1.33.21-7.26 4-6-4.22 11.44 14.68-5.57 12 8-5.03-3.13-10.13-.09-8 6-3.85 1.21-3.76-1.99-5-4-3.42-.17-3.4 3.05-4 5-1.73-2.7-6.59-1.11-10 1 5.92 1.79 19.73-5.08 19 4-6.02 1.84-19.54-4.16-20 4-3.25-.22-9.63 1.5-8-4-4.4-.55-6.75 1.47-4 5-6.48-.86-12.26 1.13-18 3 18.76-.36 45.1 3.54 61-4 5.61 10.87 34.56 2.24 37-4 6.52.81 18.5 3.89 20-3 4.1 3.47 10.72-.45 15-3-4.5-8.52-26.89-21.98-27-11-3.74 1.17-4.34-3.19-8-2-.01 4.39-7.05.73-5 7-1.87-7.57-6.94 1.92-13 0 1.32 2.19 1.61 1.84 2 5-2.13-.25-10.46 1-6-2-6.21.57-9.95 3.14-2 4-3.73-1.04-10.52 3.82-12-1 .69-1.41 3.47 3.24 5 0-2.29-.45-5.69-2.17-5-5 1.59 2.88 7.97.16 8-4 5.01 3.33 19.33-3.36 26-9-2.71-2.09-1.24-5.69-3-9-3.08 2.24 3.65 10.63-3 10 1.72-19.76-34.5-6.73-48-9 15.09 2.73 32.27-.8 47 2-20.51-.66-42.24 1.33-62-1 3.51-.55 8.24 1.16 11-1Z"/>
  <path fill="#474038" stroke="None" d="M153 370c1.44-.06.74 1.92 2 2-.28-1.49.02-3.38 2-3-.52 2.23 1.54 3.73 1 6 2.51-2.04-1.21-5.38-1-8-1.44.85-3.4 1.18-4 3Z"/>
  <path fill="#070504" stroke="None" d="M171 368c-3.77 6.13-2.29 24.41 4 30-1.09-10.07-2.03-20.18-4-30Z"/>
  <path fill="#050403" stroke="None" d="M155 372c-.01 4.81.7 13.69 7 13-1.94-2.88-2.41-6.47-4-10 .54-2.27-1.52-3.77-1-6-1.98-.38-2.28 1.51-2 3Z"/>
  <path fill="#CBB696" stroke="None" d="M131 398c-5.39-6.08-9.06-13.5-8-22-3 7.48 1.53 17.19 8 22Z"/>
  <path fill="#131111" stroke="None" d="M368 376h-12c-1.81 4.22 6.63 3.34 2 1 3.18-.53 7.57 1.13 10-1Z"/>
  <path fill="#070505" stroke="None" d="M149 377c-6.68 4.69-3.16 21.86 5 24-2.39-7.64-6.97-14.86-5-24Z"/>
  <path fill="#0D0B08" stroke="None" d="M184 396c-2.99-6.08-2.89-13.59-7-19-1.48 3.88-.62 20.61 7 19Z"/>
  <path fill="#D0BC9D" stroke="None" d="M484 385c-2.1-2.98-5.04-5.79-8-8 1.33 3.04 5.26 5.48 8 8Z"/>
  <path fill="#131111" stroke="None" d="M468 379c-5.09-2.5-18.38 3.04-8 5-1.79-6.3 5.65-2.51 8-5Z"/>
  <path fill="#0A0807" stroke="None" d="M132 380c-6.64 1.27-.28 13.99 5 15 .02-5.62-5.95-9.11-5-15Z"/>
  <path fill="#020101" stroke="None" d="M242 383c-.07 3.74.59 8.31-2 11-.55 4.84-2.55 9.19-3 14 5.81.08 3.57-8.59 8-11 .22-.38 0-1.5 0-2v-13c-1.18-.15-2.06.43-3 1Z"/>
  <path fill="#B6A282" stroke="None" d="M245 395c2.21-3.42.42-8.82 1-13h-1z"/>
  <path fill="#FDFFFD" stroke="None" d="M245 395c0 .5.22 1.62 0 2 2.69-.96 2.83-11.41 1-15-.58 4.18 1.21 9.58-1 13Z"/>
  <path fill="#403A33" stroke="None" d="M240 394c2.59-2.69 1.93-7.26 2-11-1.91 2.85-.7 7.6-2 11Z"/>
  <path fill="#3A352F" stroke="None" d="M379 388c-1.25-2.22-4.74.12-6 1 1.47 2.47 3.89-1.58 6-1Z"/>
  <path fill="#3D3731" stroke="None" d="M336 392c-4.28.92-3.97-1.04-6-3-2.86 1.66-1.88 3.04-3 7-.77-2.17-.22-3.26-3-4-2.79 3.5-8.07 4.17-12 6 .03 4.35 6.41.16 8 3-5.8 1-15.68-1.13-17 5 6.21-.24 17.89-2.84 19 2-.02-5.11.68-2.94 2 0-2.37-5.9 10.41-5.77 8 0 1.44-2.03 2.62-1.35 5-2-1.61-4.36-.83-9.28-1-14Z"/>
  <path fill="#403A33" stroke="None" d="M380 392c-2.56.66-4.51 2.43-7 3 1.59 1.62 8.13.49 7-3Z"/>
  <path fill="#3F3932" stroke="None" d="M484 395c-12.68 5.93-26.65 7.74-40 10 1.57 2.66 6.36-.59 8 2-2.98-.68-9.63 3.74-9-2-6.48 3.69-14.29 2.65-22 4 4.98-.45 4.45 8.47-1 7 .28-3.07.44-7.46-4-6 3.26 6.86-8.82 4.56-1 1-5.6 1.42-21.33 1.4-20 5-3.97.18-7.86-1.75-11 1 5.18.61 11.58-1.25 16 1-4.33.87-22.87-2.01-17 2-4.6 1.63-9.69.27-14 1 2.28 3.83 8.25.42 11 3-16.74-3.28-26.13 4.73-43 5 .48 2.22-1.03 7.22-5 6 1.83 1.55 5.43.99 4 5-7.06.69-17.2-2.45-20 4 .78-2.5-1.4-5.03 0-7-6.14 3.77-18.37 4.01-20 11-2.47-.9-4.58-1.03-7 0-.29-2.67 2.83-5.43 0-7 3.5 1.17 12.38-2.73 7-5 3.84-1 4.07 1.29 6 2 1.99-2.77 2.42-6.04 2-10 4.67-.82 6.21 4.86 4 7 4.34-2.67 9.26-3.58 14-5-8.55-.1-2.8-4.78 2-6 5.13 5.84 40.31-1.88 44-12 6.65 3.99 17.72-.45 26-3-12.98 2.01-42.65-9.35-44 7-2.36-.15-7.14 1.01-6-3 10.2-1.55-3.42-9.19 0-3-4.57 1.67-8.1 1.64-13 2 1.53 5.01-4.53.71-4 4 2.85.5 6.9-1.08 9 1-5.98.35-12.41-.88-18 1 6.77 5.64-15.68-1.64-6 4-6.11 2.51-19.16-1.7-20 6-12.94-3.54-30.19 2.56-41 8 11.34-2.41 24.22.28 37 1-12.19 2.99-27.74-.99-40 2 13.51.66 28.24-1.32 41 1h-49c1.95 5.43-6 2.65-4 8-5.61 1.39-10.58-1.34-6-6-5.41-.06-8.47 2.59-14 2-.83-6.81 10.99-3.87 8-12 3.85-1.21 3.76 1.99 5 4 19.78-5.4 33.33-10.64 50-14-14.24 0-31.08-2.33-46 2-1.55 1.83-.99 5.43-5 4-1.87-5.47-2.5-11.36-2-18-5.8.05-.57 3.49-6 4 7.49.7-.71-.13-1 3 2.59 2.39 3.88-.62 6-1 .53 2.68-3.48 3.34-3 6 3.42-2.82 2.12-.52 3 2-3.42.14-5.86-.88-9 0-1.91 3.12-4.52 8.39-8 6 .41 6.16 1.33 12.45-1 18-.47-2.52 1.03-6.23-1-8-.47 2.52 1.03 6.23-1 8-.47-2.52 1.03-6.23-1-8-2.15 6.53-5.13 13.53-2 20 .47-2.52-1.03-6.23 1-8v16c-4.26 1.24-2.03-3.63-4-5 .17 4.9-.52 5.22-2 1 .33 2.98-.82 6.42 1 9 26.81-2.1 54.12.74 82-2-2.46-1.87-5.09-.92-1-3-5.11.17-8.19 3.75-7-4 3.26.22 9.63-1.5 8 4 5.48 1.49 10.41.26 16 0-1.49-5.56 4.67-3.78 8-4-5.46 4.3 39.47-1.1 36-16 4.46-1.3 4.35 2.85 4 6 8-1.93 15.72-5.74 24-7 .33-6.78-2.9-18.41 8-15-1.7 4.88 2.9 8.95 0 12 12.33-3.96 23.82-10.33 37-12 .72-3.94-5.75-.16-5-4 18.16.42 33.38-1.36 51-6-4.71-.87 1.9-5.84 5-6-3.67 7.07 8.65 3.78 4 1 9.99.37 20.03-3.61 30-6-11.33-7.54-31.46.24-45-4 8.84-.65 18.91 1.31 27-1-7.84-.64-16.91 1.3-24-1 1.71-.64 12.2-5.23 8-1h36c-1.57-3.92 2.85-3.37 3-6-2.41-.87-8.01-.87-4 2-6.92-1.71-14.64-.93-21 0 .73-3.38 6.59-.7 6-5Z"/>
  <path fill="#131111" stroke="None" d="M332 400c1.27-8.98-8.91 1.37 0 0Z"/>
  <path fill="#403A33" stroke="None" d="M356 398c-1.38-3.27-6.17-1.23-8-1 2.26 3.97 5.13-.87 8 1Z"/>
  <path fill="#3D3831" stroke="None" d="M520 405c-3.03-3.41-12.08 2.79-13-6-2.97 2.78-6.04 4.9-7 9 4.94 1.92 3.27-5.32 8-4 1.31 3.32-3.16 3.48-3 6 5.27-2.22 9.19-4.55 15-5Z"/>
  <path fill="#DAC5A5" stroke="None" d="M199 405c3.09-3.9 9.34-1.28 12-5-3.78 2.27-10.54-.21-12 5Z"/>
  <path fill="#131111" stroke="None" d="M438 400c-4.9.86-9.99-.11-14 1 3.59 1.6 10.8 2.11 14-1Z"/>
  <path fill="#0C0A08" stroke="None" d="M185 409c-.59-3.89-6.2-7.04-10-8 .14 4.47 5.92 7.57 10 8Z"/>
  <path fill="#131111" stroke="None" d="M480 402c-2.87-1.71-9.06-1.57-12 0 2.87 1.71 9.06 1.57 12 0Z"/>
  <path fill="#3C3730" stroke="None" d="M302 407c1.13-5.58-8.97-1.09-7 2 1.96-.99 3.41-3.73 7-2Z"/>
  <path fill="#3A352F" stroke="None" d="M413 406c-5.98-4.03-5.87 4.49 0 0Z"/>
  <path fill="#3C3630" stroke="None" d="M320 407c-9.95-2.52-27.19 8.74-29 2-6.19.71-4.95.9-3 5-8.37-1.7-14.37-.78-22 3 5.69 4.38 19.19 3.81 24-1-2.29 8.45 16.36 2.85 14-4 4.76-1.91 2.89 3.91 6 4 3.94-4.68 13.65-2.61 16-8-2.08.79-7.13 3.29-6-1Z"/>
  <path fill="#403A33" stroke="None" d="M403 409c-1.66-1.7-6.94-1.86-8 1 2.98-.91 4.97-.44 8-1Z"/>
  <path fill="#DDCBAF" stroke="None" d="M206 426c2.24-7.2 9.49-11.6 14-17-5.72 4.52-12.97 9.25-14 17Z"/>
  <path fill="#D3BFA1" stroke="None" d="M489 418c4.91-.7 9.65-3.47 14-5-5.07.12-9.81 2.98-14 5Z"/>
  <path fill="#B6A282" stroke="None" d="M163 415c2.23 1.53 8.41 2.17 10-1-2.93 1.84-6.66.68-10 1Z"/>
  <path fill="#403A33" stroke="None" d="M374 420c2.15.62 7.14-.41 4-3-.51 2.95-3.49.1-4 3Z"/>
  <path fill="#3B352F" stroke="None" d="M266 419c-3.97-2.07-9.58-.95-13 1 4.59-.97 9.15.97 13-1Z"/>
  <path fill="#131111" stroke="None" d="M360 427c-2.47-.14-4.55 2.63-4 5 3.77 1.07 4.65-1.9 4-5ZM240 428c-5.06-1.52-3.16 4.5-7 5 3.08.39 7.82-1.05 7-5ZM290 428c-3.38 3.61-9.97.56-14 3 3.51.55 8.24-1.16 11 1-8.88 1.6-15.55-3.11-23 0 6.27 2.41 25.32 6.11 26-4Z"/>
  <path fill="#B6A282" stroke="None" d="M443 429c2.85-.5 6.9 1.08 9-1-2.85.5-6.9-1.08-9 1Z"/>
  <path fill="#131111" stroke="None" d="M388 432c-9.14-1.01 1.12 9.08 0 0ZM392 432c-1.27 8.98 8.91-1.36 0 0Z"/>
  <path fill="#3C3630" stroke="None" d="M327 433c-2.57 1.07-5.08 2.3-8 2 1.69 1.63 9.22 2.32 8-2Z"/>
  <path fill="#C6B292" stroke="None" d="M196 447c3.04-3.26 3.43-8.68 5-13-2.88 3.58-3.35 8.64-5 13Z"/>
  <path fill="#131111" stroke="None" d="M222 436h-12c.82 3.9.38 8.66 2 12-3.01-6.74 4.43-7.31 4-11 2.34.15 4.85 1.79 6-1Z"/>
  <path fill="#403A33" stroke="None" d="M236 440c-9.51-1.46.16 8.86 0 0Z"/>
  <path fill="#131111" stroke="None" d="M206 452c-1.7 4.19-1.61 11.74 0 16zM208 452c-2.31 4.34-.35 10.84-1 16 5.18-1.61 17.3 3.81 17-4h-16z"/>
  <path fill="#403A33" stroke="None" d="M200 454c-2.2 1.48-2.96 6.14-1 8 .73-2.61 1.35-5.14 1-8Z"/>
  <path fill="#E0CDB2" stroke="None" d="M306 470c4.13.16 8.71-.26 12-2-4.02.34-8.63.52-12 2Z"/>
  <path fill="#C7B18F" stroke="None" d="M212 477c22.68-3.19 48 1.66 70-3-22.69 3.02-48.49-1.87-70 3Z"/>
</svg>