<?xml version="1.0" encoding="utf-8"?>
<svg xmlns="http://www.w3.org/2000/svg" width="736" height="736">
  <path fill="none" fill-opacity="0" stroke="#ff4757" stroke-width="10" d="M 312 76 C 307.83 75.36 302.34 77.29 299 75 L 259 75 C 254.83 74.36 249.34 76.29 246 74 C 181.88 70.54 121.65 51.73 61.67 33.33 C 15.73 27.17 64.4 67.78 74.75 84.25 C 129.8 157.44 214.89 188.5 302 193 C 274.48 202.53 244.59 208.47 218.07 222.07 C 161.71 254.27 97.52 256.86 35.23 242.23 C 30.39 263.14 72.47 277.31 88.92 292.08 C 114.37 306.28 141.39 317.46 169.93 323.07 C 266.98 342.13 348.97 252.92 448 282 C 433.43 297.28 417.14 311.31 406.31 329.31 C 392.05 344.4 392.9 380.03 378 385 C 379.09 387 381.07 388.74 383 390 C 380.88 401.66 377.26 412.9 377 425 C 359.24 448.96 317.83 457.96 318 493 C 263.64 493.5 210.82 504.61 163 527 C 213.15 511.34 264.31 498.4 318 496 C 300.82 509.58 264.35 510.85 241.07 524.07 C 217.14 534.24 192.96 545.57 172 561 C 219.11 536.67 268.37 516.98 319 502 C 320.02 505.47 322.19 508.5 323 512 C 281.33 523.44 286.97 530.66 324 516 C 312.28 567.44 381.84 565.87 414 579 C 393.62 622.86 467.97 685.58 487.22 628.22 C 499.13 588.08 554.48 558.67 591.92 587.08 C 626.86 605.58 657.66 636.7 681 669 C 695.82 657.35 706.07 640.79 706 622 C 670.93 586.44 642.19 520.21 680 479 C 689.59 478.15 692.85 462.68 694 454 C 709.24 439.4 694.18 405.26 676 394 C 671.93 371.41 641.03 360.73 621 354 C 622.47 298.11 560.16 280.11 543.78 235.22 C 522.86 192.69 503.35 148.74 468.75 114.25 C 427.16 74.16 367.82 74.62 312 76 M 307 80 C 311.17 80.64 316.66 78.71 320 81 C 373.4 79.77 431.04 80.41 468.75 122.25 C 502.58 155.95 520.42 199.74 540.92 241.08 C 558.05 284.17 619.26 302.02 616 357 C 573.09 350.15 528.48 354.87 490 373 C 492.07 353.33 515.93 291.37 481.3 301.3 C 456.48 313.87 455.18 354.23 440 364 C 440.93 366.17 443.05 367.11 445 368 C 440.96 380.71 441.09 395.17 439 408 C 434.29 413.35 430.89 417.08 426 421 C 420.01 430.12 406.92 428.31 400 436 C 406.97 433.28 413.74 429.94 421 428 C 401.63 447.45 398.8 475.51 374 489 C 380.87 485.74 386.74 479.62 394 477 C 394.3 485.39 392.84 493.18 385 497 C 388.26 496.82 390.53 493.54 394 494 C 394.63 521.83 426.14 537.69 453 532 C 450.39 529.23 444.54 532.81 442 530 C 426.25 530.57 408.89 522.29 403 507 C 451.82 492.11 505.71 488.77 557 491 C 505.24 481.64 449.82 486.03 402 506 C 389.93 479.52 435.6 479.58 452.07 469.07 C 477.56 461.7 503.2 454.6 530 452 C 529.17 450.25 526.56 451.34 525 451 C 479.62 452.03 436.91 466.22 398 488 C 399.15 459.03 440.39 458.69 461.02 447.02 C 488.22 438.15 515.96 431.03 544 425 C 494.74 428.46 444.81 444 401 468 C 408.71 438.66 430.12 416 462 419 C 452.21 414.58 439.78 418.42 431 419 C 473.43 381.41 526.02 355.89 584 358 C 587.6 356.41 594.47 356.29 598 358 C 625.69 355.76 651.48 368.23 670 388 C 666.56 389.22 662.46 385.94 660 388 C 680.04 399.63 698.4 419.98 695 445 C 692.24 443.58 690.73 440.35 688 439 C 689.26 448.96 690.49 460.14 685 469 C 681.99 465.2 683.01 458.76 680 455 C 678.22 502.24 622.74 516.71 591.77 542.77 C 553.67 561.74 515.17 581.49 484 612 C 477.07 599.78 476.49 584.91 473 572 C 462.34 597.4 500.3 625.68 471.3 644.3 C 448.12 655.21 420.62 628.58 420 607 C 426.65 629.75 467.02 621.56 451.08 596.92 C 442.72 579.54 429.47 561.19 436 541 C 409.34 551.82 377.84 552.45 350 545 C 355.08 548.53 362.26 548.35 368 551 C 372.35 551.2 377.38 551.43 381 553 C 381.5 553.05 382.5 553 383 553 L 404 553 C 412.84 553.69 420.45 549.59 429 549 L 429 558 C 427.56 578.78 459.98 598.88 445 617 C 441.25 618.61 433.62 619.32 431 615 C 423.85 609.28 416.31 601.96 418 592 C 414.27 587.19 421.49 578.97 416 575 C 404.77 572.63 394.02 568.72 384 563 C 379.37 558.43 374.17 555.63 369 552 C 369.42 556.04 372.7 558.89 375 562 C 353.54 561.95 323.5 548 326.78 522.78 C 344.08 500.17 375.79 527.44 398 522 C 379.19 517.4 361.53 508.17 341 510 C 337.92 512 333.7 512.9 330 514 C 331.49 510.77 337.37 509.99 341 509 C 351.07 506.58 360.53 502.13 371 501 C 356.94 499.59 341.75 505.75 328 510 C 326.1 506.08 321.48 500.42 328 499 C 324.9 499.65 321.93 498.77 323 495 C 331.03 494.83 338.76 493.38 347 494 C 344.24 491.84 339.51 493.55 336 493 C 331.83 492.36 326.34 494.29 323 492 C 320.22 472.16 340.15 460.68 355 454 C 354.82 460.55 356.17 466.69 357 473 C 360.34 465.32 354.48 453.12 362 447 C 368.96 438.06 381.26 435.27 392 438 C 382.57 448.18 372.28 458.07 368 471 C 368.14 473.25 365.84 474.71 366 477 C 374.09 462.86 386.74 450.75 397 438 C 393.7 428.94 380.37 433.63 374 432 C 388.52 419.73 409.38 420 428 417 C 428.13 416.2 429.09 415.89 429 415 C 421.16 413.92 412.82 413.4 405 415 C 418.13 389.42 432.33 351.92 415 326 C 427.03 310.03 440.83 291.62 459 283 C 459.65 291.6 452.78 300.21 455 308 C 485.52 267.54 416.73 272.39 391 273 C 295.97 283.32 200.78 358.67 106.92 296.08 C 81.37 283.04 57.45 266.31 36 247 C 109.06 269.32 181.29 248.79 246.68 215.68 C 310.44 189.45 397.25 179.48 451 231 C 438.77 234.19 453.63 242.19 458 245 C 434.39 250.68 415.05 244.2 392 240 L 384 240 C 397.32 241.98 411.09 245.4 424 250 C 359.33 245.76 310.4 295.42 248 301 C 243.97 302.5 238.69 302.72 234 303 C 226.41 304.65 215.52 304.68 208 303 C 205.48 302.44 201.7 304.19 200 302 C 187.28 303.16 176.24 297.8 164 297 C 163.26 296.82 162.09 297.05 162 298 C 255.74 338.02 333.48 259.29 422 254 C 424.25 267.91 445.13 257.12 454 262 C 436.09 265.04 443.8 280.25 459 273 C 454.4 271.15 448.1 273.23 444 271 C 447.92 264.91 463.23 265.13 461.74 257.25 C 451.09 256.75 439.74 257.28 430 255 C 448.49 249.88 490.15 252.12 454 235 C 459.5 234.06 466.91 235.65 471 232 C 451.68 232.56 440.76 210.38 424 205 C 441.94 211.02 459.16 220.37 474 232 C 475.82 231.45 476.47 233.75 478 234 C 480.9 234.81 483.85 239.87 486 239 C 419.68 167.61 311.72 203.55 227.93 176.07 C 148.71 165.63 91.49 99.42 44 39 C 129.41 52.38 213.78 89.45 307 80 M 490 361 C 491.12 381.86 464.95 384.08 453 396 C 455.05 388.71 455.22 380.88 455 373 C 467.3 375.67 481.25 371.42 489 361 C 478.12 366.2 462.47 372.39 449 367 C 454.86 346.85 462.57 326.43 477.75 310.75 C 505.21 288.32 491.34 346.08 490 361 M 413 385 C 405.82 389.08 397.18 391.26 389 389 C 393.09 367.48 401.14 346.63 413 328 C 425.76 342.48 413.35 366.82 413 385 M 412 388 C 410.16 397.54 406.55 406.66 404 416 C 399.63 415.59 395.89 417.58 392 419 C 394.39 411.29 395.39 403.19 396 395 C 402.14 395.07 407.63 392.22 412 388 M 658 500 C 654.1 531.93 661.65 563.44 675.92 591.08 C 693.91 611.77 711.9 639.69 683 661 C 646.92 618.8 603.83 575.03 548 568 C 588.4 552.86 625.38 529.43 658 500 Z"/>
  <path fill="none" fill-opacity="0" stroke="#817B88" stroke-width=".3" d="M486 239c2.96 2.21 5.9 5.02 8 8-5.66-3.36-11.21-8.44-16-13-1.53-.25-2.18-2.55-4-2h-3c-4.09 3.65-11.5 2.06-17 3 36.15 17.12-5.51 14.88-24 20 9.74 2.28 21.09 1.75 31.74 2.25 1.49 7.88-13.82 7.66-17.74 13.75 4.1 2.23 10.4.15 15 2-15.2 7.25-22.91-7.96-5-11-8.87-4.88-29.75 5.91-32-8-88.52 5.29-166.26 84.02-260 44-7.68-1.96-14.91-5.31-22-9-3.59-2.86-8.14-3.84-12-5-5.2.39-10.05-.34-15-1 96.86 3.94 182.22-56.47 279-43 23.05 4.2 42.39 10.68 66 5-4.37-2.81-19.23-10.81-7-14-53.75-51.52-140.56-41.55-204.32-15.32C181.29 248.79 109.06 269.32 36 247c21.45 19.31 45.37 36.04 70.92 49.08C200.78 358.67 295.97 283.32 391 273c25.73-.61 94.52-5.46 64 35-2.22-7.79 4.65-16.4 4-25-18.17 8.62-31.97 27.03-44 43 17.33 25.92 3.13 63.42-10 89 7.82-1.6 16.16-1.08 24 0 4.6.46 6.3-5.36 10-7 2.09-12.83 1.96-27.29 6-40-1.95-.89-4.07-1.83-5-4 15.18-9.77 16.48-50.13 41.3-62.7 34.63-9.93 10.77 52.03 8.7 71.7 38.48-18.13 83.09-22.85 126-16 3.26-54.98-57.95-72.83-75.08-115.92-20.5-41.34-38.34-85.13-72.17-118.83C431.04 80.41 373.4 79.77 320 81c-4.17-.64-9.66 1.29-13-1-93.22 9.45-177.59-27.62-263-41 47.49 60.42 104.71 126.63 183.93 137.07C311.72 203.55 419.68 167.61 486 239M120 95c6.26 1.2 12.4 4.65 18 7 27.47 8.17 56.43 10.93 86 11 4.42-2.25 10.82-.39 16-1 45.36-.39 89.32 4.76 132 15 37.9 7.97 70.48 29.76 100 55 7.44 6.85 15.64 13.04 22 21 6.47 6.26 14.55 12.45 19 20-105.57-82.91-265.42-8.02-366-102-7.9-3.73-13.13-11.68-20-17-2.66-.21-4.43-1.2-7 0 5.58-7.03-11.1-4.6-8-13 3.28-.34 5.4 3.14 8 4m353 199c-2.26 3.05-4.09 6.7-7 9 .4-2.11 1.38-4.66 3-6 7.57-16.38 18.07-34.19 35.08-42.92 28.16-6.12 14.49 37.91 12.92 53.92-5.13-13.33 10.43-52.71-12.08-48.08-13.1 8.33-23.64 21.39-31.92 34.08Z"/>
  <path fill="none" fill-opacity="0" stroke="#818181" stroke-width=".3" d="M259 75c-3.34-2.29-8.83-.36-13-1 3.34 2.29 8.83.36 13 1Z"/>
  <path fill="none" fill-opacity="0" stroke="#6B6B6B" stroke-width=".3" d="M312 76c-3.34-2.29-8.83-.36-13-1 3.34 2.29 8.83.36 13 1Z"/>
  <path fill="none" fill-opacity="0" stroke="#413C47" stroke-width=".3" d="M320 81c-3.34-2.29-8.83-.36-13-1 3.34 2.29 8.83.36 13 1Z"/>
  <path fill="none" fill-opacity="0" stroke="#8D6E7F" stroke-width=".3" d="M127 104c-.23-.16 0-1 0-1-3.3-2.55-5.97-5.75-10-7 .26-1.39 2.05-.78 3-1-2.6-.86-4.72-4.34-8-4-3.1 8.4 13.58 5.97 8 13 2.57-1.2 4.34-.21 7 0Z"/>
  <path fill="none" fill-opacity="0" stroke="#7D4558" stroke-width=".3" d="M127 103c1.25.3 1.71 1.83 3 2-1.11-2.41-3.96-3.62-5-6 4.06 1.08 8.07 2.4 12 4 .14.01.65-.96 1-1-5.6-2.35-11.74-5.8-18-7-.95.22-2.74-.39-3 1 4.03 1.25 6.7 4.45 10 7Z"/>
  <path fill="none" fill-opacity="0" stroke="#BE3B56" stroke-width=".3" d="M130 105c6.74 5.58 13.76 11.22 20 17 38.53 28.01 84.41 42.55 132 46 4.65.34 10.05.43 14 2 26.73.72 53 3.31 80 3 5.16.65 11.66-1.31 16 1 34.9.77 66.42 14.08 97 29-30.33-35.36-73.3-64.99-119-75-74.67-20.01-159.07-2.48-233-25-3.93-1.6-7.94-2.92-12-4 1.04 2.38 3.89 3.59 5 6Z"/>
  <path fill="none" fill-opacity="0" stroke="#230A0E" stroke-width=".3" d="M137 103c73.93 22.52 158.33 4.99 233 25 .74.18 1.91-.05 2-1-42.68-10.24-86.64-15.39-132-15-4.42 2.25-10.82.39-16 1-29.57-.07-58.53-2.83-86-11-.35.04-.86 1.01-1 1Z"/>
  <path fill="none" fill-opacity="0" stroke="#4C1A23" stroke-width=".3" d="M127 104c6.87 5.32 12.1 13.27 20 17 .68-1.89 1.86 1.21 3 1-6.24-5.78-13.26-11.42-20-17-1.29-.17-1.75-1.7-3-2 0 0-.23.84 0 1Z"/>
  <path fill="none" fill-opacity="0" stroke="#40434A" stroke-width=".3" d="M224 113c5.18-.61 11.58 1.25 16-1-5.18.61-11.58-1.25-16 1Z"/>
  <path fill="none" fill-opacity="0" stroke="#120507" stroke-width=".3" d="M147 121c100.58 93.98 260.43 19.09 366 102-4.45-7.55-12.53-13.74-19-20-3.8-2.38-6.24-6.68-10-9 3.68 4.96 9.47 9.06 12 14-2.4-1.49-5.81-2.05-7-5-30.58-14.92-62.1-28.23-97-29-5.16-.65-11.66 1.31-16-1-27 .31-53.27-2.28-80-3-4.77.09-10.09-.2-14-2-47.59-3.45-93.47-17.99-132-46-1.14.21-2.32-2.89-3-1Z"/>
  <path fill="none" fill-opacity="0" stroke="#4F1A27" stroke-width=".3" d="M370 128c45.7 10.01 88.67 39.64 119 75 1.19 2.95 4.6 3.51 7 5-2.53-4.94-8.32-9.04-12-14-3.8-3.75-8.79-7.43-12-12-29.52-25.24-62.1-47.03-100-55-.09.95-1.26 1.18-2 1Z"/>
  <path fill="none" fill-opacity="0" stroke="#5F1F28" stroke-width=".3" d="M296 170c-3.95-1.57-9.35-1.66-14-2 3.91 1.8 9.23 2.09 14 2Z"/>
  <path fill="none" fill-opacity="0" stroke="#571120" stroke-width=".3" d="M392 174c-4.34-2.31-10.84-.35-16-1 4.34 2.31 10.84.35 16 1Z"/>
  <path fill="none" fill-opacity="0" stroke="#51464D" stroke-width=".3" d="M484 194c3.76 2.32 6.2 6.62 10 9-6.36-7.96-14.56-14.15-22-21 3.21 4.57 8.2 8.25 12 12Z"/>
  <path fill="none" fill-opacity="0" stroke="#292331" stroke-width=".3" d="M486 239c-2.15.87-5.1-4.19-8-5 4.79 4.56 10.34 9.64 16 13-2.1-2.98-5.04-5.79-8-8Z"/>
  <path fill="none" fill-opacity="0" stroke="#1A080B" stroke-width=".3" d="M128 284c6.09-2.29 14.16-.37 21-1 81.86-.57 152-49.94 235-43h8c-96.78-13.47-182.14 46.94-279 43 4.95.66 9.8 1.39 15 1Z"/>
  <path fill="none" fill-opacity="0" stroke="#BD3B55" stroke-width=".3" d="M149 283c-2.1 2.08-6.15.5-9 1-1.84 1.54.63 2.52 1 4 7.19 3.73 15.77 5.93 23 9 12.24.8 23.28 6.16 36 5 16.21.49 32.03-.51 48-1 62.4-5.58 111.33-55.24 176-51-12.91-4.6-26.68-8.02-40-10-83-6.94-153.14 42.43-235 43Z"/>
  <path fill="none" fill-opacity="0" stroke="#0E0711" stroke-width=".3" d="M469 297c1.66-.54 2.33-2.56 4-3 8.28-12.69 18.82-25.75 31.92-34.08 22.51-4.63 6.95 34.75 12.08 48.08 1.57-16.01 15.24-60.04-12.92-53.92-17.01 8.73-27.51 26.54-35.08 42.92Z"/>
  <path fill="none" fill-opacity="0" stroke="#3E1020" stroke-width=".3" d="M128 284h12c2.85-.5 6.9 1.08 9-1-6.84.63-14.91-1.29-21 1Z"/>
  <path fill="none" fill-opacity="0" stroke="#84485B" stroke-width=".3" d="M140 289c.15.01.67-1.01 1-1-.37-1.48-2.84-2.46-1-4h-12c3.86 1.16 8.41 2.14 12 5Z"/>
  <path fill="none" fill-opacity="0" stroke="#35141B" stroke-width=".3" d="M140 289c7.09 3.69 14.32 7.04 22 9 .09-.95 1.26-1.18 2-1-7.23-3.07-15.81-5.27-23-9-.33-.01-.85 1.01-1 1Z"/>
  <path fill="none" fill-opacity="0" stroke="#38323E" stroke-width=".3" d="M469 297c-1.62 1.34-2.6 3.89-3 6 2.91-2.3 4.74-5.95 7-9-1.67.44-2.34 2.46-4 3Z"/>
  <path fill="none" fill-opacity="0" stroke="#883345" stroke-width=".3" d="M200 302c1.7 2.19 5.48.44 8 1h26c4.69-.28 9.97-.5 14-2-15.97.49-31.79 1.49-48 1Z"/>
  <path fill="none" fill-opacity="0" stroke="#400712" stroke-width=".3" d="M234 303h-26c7.52 1.68 18.41 1.65 26 0Z"/>
  <path fill="none" fill-opacity="0" stroke="#807A88" stroke-width=".3" d="M489 361c.16-.23 1 0 1 0 1.34-14.92 15.21-72.68-12.25-50.25-15.18 15.68-22.89 36.1-28.75 56.25 13.47 5.39 29.12-.8 40-6Z"/>
  <path fill="none" fill-opacity="0" stroke="#7F7A87" stroke-width=".3" d="M413 385c.35-18.18 12.76-42.52 0-57-11.86 18.63-19.91 39.48-24 61 8.18 2.26 16.82.08 24-4Z"/>
  <path fill="none" fill-opacity="0" stroke="#646164" stroke-width=".3" d="M584 358h14c-3.53-1.71-10.4-1.59-14 0Z"/>
  <path fill="none" fill-opacity="0" stroke="#D6D6D6" stroke-width=".3" d="M525 451c3.27-1.58 9.8-1.71 13 0-2.94-.67-5.18 1.09-8 1-26.8 2.6-52.44 9.7-77.93 17.07C435.6 479.58 389.93 479.52 402 506c47.82-19.97 103.24-24.36 155-15-51.29-2.23-105.18 1.11-154 16 5.89 15.29 23.25 23.57 39 23h14c-.55 1.01-1.98 1.44-3 2-26.86 5.69-58.37-10.17-59-38-3.47-.46-5.74 2.82-9 3 7.84-3.82 9.3-11.61 9-20-7.26 2.62-13.13 8.74-20 12 24.8-13.49 27.63-41.55 47-61-7.26 1.94-14.03 5.28-21 8-.55 1.01-1.98 1.44-3 2-10.26 12.75-22.91 24.86-31 39-1.02 3.11-2.15 7.09-5 9-1.42-4.28-3.22-8.47-4-13-.83-6.31-2.18-12.45-2-19-14.85 6.68-34.78 18.16-32 38 4.17.64 9.66-1.29 13 1 3.51.55 8.24-1.16 11 1-8.24-.62-15.97.83-24 1-1.07 3.77 1.9 4.65 5 4-6.52 1.42-1.9 7.08 0 11 13.75-4.25 28.94-10.41 43-9-10.47 1.13-19.93 5.58-30 8-.14.05 0 1 0 1 20.53-1.83 38.19 7.4 57 12-22.21 5.44-53.92-21.83-71.22.78C323.5 548 353.54 561.95 375 562c-2.3-3.11-5.58-5.96-6-10-.3-.21-.73-.85-1-1-5.74-2.65-12.92-2.47-18-6 27.84 7.45 59.34 6.82 86-4-6.53 20.19 6.72 38.54 15.08 55.92 15.94 24.64-24.43 32.83-31.08 10.08.62 21.58 28.12 48.21 51.3 37.3 29-18.62-8.96-46.9 1.7-72.3 3.49 12.91 4.07 27.78 11 40 31.17-30.51 69.67-50.26 107.77-69.23 30.97-26.06 86.45-40.53 88.23-87.77 3.01 3.76 1.99 10.2 5 14 5.49-8.86 4.26-20.04 3-30 2.73 1.35 4.24 4.58 7 6 3.4-25.02-14.96-45.37-35-57 2.46-2.06 6.56 1.22 10 0-18.52-19.77-44.31-32.24-72-30h-14c-57.98-2.11-110.57 23.41-153 61 8.78-.58 21.21-4.42 31 0-31.88-3-53.29 19.66-61 49 43.81-24 93.74-39.54 143-43-28.04 6.03-55.78 13.15-82.98 22.02-20.63 11.67-61.87 12.01-63.02 40.98 38.91-21.78 81.62-35.97 127-37Z"/>
  <path fill="none" fill-opacity="0" stroke="#F1F1F2" stroke-width=".3" d="M490 361s-.84-.23-1 0c-7.75 10.42-21.7 14.67-34 12 .22 7.88.05 15.71-2 23 11.95-11.92 38.12-14.14 37-35Z"/>
  <path fill="none" fill-opacity="0" stroke="#F0EFF0" stroke-width=".3" d="M412 388c-4.37 4.22-9.86 7.07-16 7-.61 8.19-1.61 16.29-4 24 3.89-1.42 7.63-3.41 12-3 2.55-9.34 6.16-18.46 8-28Z"/>
  <path fill="none" fill-opacity="0" stroke="#3F3C42" stroke-width=".3" d="M429 415c.09.89-.87 1.2-1 2 1.9 1.11-2.08 2.48-2 4 4.89-3.92 8.29-7.65 13-13-3.7 1.64-5.4 7.46-10 7Z"/>
  <path fill="none" fill-opacity="0" stroke="#7E7883" stroke-width=".3" d="M397 438c1.02-.56 2.45-.99 3-2 6.92-7.69 20.01-5.88 26-15-.08-1.52 3.9-2.89 2-4-18.62 3-39.48 2.73-54 15 6.37 1.63 19.7-3.06 23 6Z"/>
  <path fill="none" fill-opacity="0" stroke="#B83D56" stroke-width=".3" d="M362 447c-4.54 11.06-4.07 26.07 0 37 1.56-4.39 2.98-9.47 6-13 4.28-12.93 14.57-22.82 24-33-10.74-2.73-23.04.06-30 9Z"/>
  <path fill="none" fill-opacity="0" stroke="#541B25" stroke-width=".3" d="M357 473c.78 4.53 2.58 8.72 4 13 2.85-1.91 3.98-5.89 5-9-.16-2.29 2.14-3.75 2-6-3.02 3.53-4.44 8.61-6 13-4.07-10.93-4.54-25.94 0-37-7.52 6.12-1.66 18.32-5 26Z"/>
  <path fill="none" fill-opacity="0" stroke="#6E6E6E" stroke-width=".3" d="M525 451c1.56.34 4.17-.75 5 1 2.82.09 5.06-1.67 8-1-3.2-1.71-9.73-1.58-13 0Z"/>
  <path fill="none" fill-opacity="0" stroke="#6B6B6B" stroke-width=".3" d="M336 493c-3.34-2.29-8.83-.36-13-1 3.34 2.29 8.83.36 13 1Z"/>
  <path fill="none" fill-opacity="0" stroke="#817B88" stroke-width=".3" d="M658 500c-32.62 29.43-69.6 52.86-110 68 55.83 7.03 98.92 50.8 135 93 28.9-21.31 10.91-49.23-7.08-69.92C661.65 563.44 654.1 531.93 658 500Z"/>
  <path fill="none" fill-opacity="0" stroke="#4E4E4E" stroke-width=".3" d="M341 510s-.14-.95 0-1c-3.63.99-9.51 1.77-11 5 3.7-1.1 7.92-2 11-4Z"/>
  <path fill="none" fill-opacity="0" stroke="#818181" stroke-width=".3" d="M453 532c1.02-.56 2.45-.99 3-2h-14c2.54 2.81 8.39-.77 11 2Z"/>
  <path fill="none" fill-opacity="0" stroke="#A64C52" stroke-width=".3" d="M404 553c-5.92 1.63-15.15 1.69-21 0-.5 0-1.5.05-2 0-2.08.08-5.28-.69-6 2 3.67 1.52 6.69 4.85 9 8 10.02 5.72 20.77 9.63 32 12 .49.07 1.52.1 2 0 3.99-4.15 9.08-10.93 11-17v-9c-8.55.59-16.16 4.69-25 4Z"/>
  <path fill="none" fill-opacity="0" stroke="#663538" stroke-width=".3" d="M369 552c5.17 3.63 10.37 6.43 15 11-2.31-3.15-5.33-6.48-9-8 .72-2.69 3.92-1.92 6-2-3.62-1.57-8.65-1.8-13-2 .27.15.7.79 1 1Z"/>
  <path fill="none" fill-opacity="0" stroke="#57282A" stroke-width=".3" d="M404 553h-21c5.85 1.69 15.08 1.63 21 0Z"/>
  <path fill="none" fill-opacity="0" stroke="#812C38" stroke-width=".3" d="M418 575c2.89 5.45-1.11 11.17 0 17-1.69 9.96 5.85 17.28 13 23 4.29 2.01 9.13 2.19 14 2 14.98-18.12-17.44-38.22-16-59-1.92 6.07-7.01 12.85-11 17Z"/>
  <path fill="none" fill-opacity="0" stroke="#270407" stroke-width=".3" d="M418 592c-1.11-5.83 2.89-11.55 0-17-.48.1-1.51.07-2 0 5.49 3.97-1.73 12.19 2 17Z"/>
  <path fill="none" fill-opacity="0" stroke="#3D0E13" stroke-width=".3" d="M445 617c-4.87.19-9.71.01-14-2 2.62 4.32 10.25 3.61 14 2Z"/>
  <path fill="#080608" stroke="None" d="M 312 76 C 307.83 75.36 302.34 77.29 299 75 L 259 75 C 254.83 74.36 249.34 76.29 246 74 C 181.88 70.54 121.65 51.73 61.67 33.33 C 15.73 27.17 64.4 67.78 74.75 84.25 C 129.8 157.44 214.89 188.5 302 193 C 274.48 202.53 244.59 208.47 218.07 222.07 C 161.71 254.27 97.52 256.86 35.23 242.23 C 30.39 263.14 72.47 277.31 88.92 292.08 C 114.37 306.28 141.39 317.46 169.93 323.07 C 266.98 342.13 348.97 252.92 448 282 C 433.43 297.28 417.14 311.31 406.31 329.31 C 392.05 344.4 392.9 380.03 378 385 C 379.09 387 381.07 388.74 383 390 C 380.88 401.66 377.26 412.9 377 425 C 359.24 448.96 317.83 457.96 318 493 C 263.64 493.5 210.82 504.61 163 527 C 213.15 511.34 264.31 498.4 318 496 C 300.82 509.58 264.35 510.85 241.07 524.07 C 217.14 534.24 192.96 545.57 172 561 C 219.11 536.67 268.37 516.98 319 502 C 320.02 505.47 322.19 508.5 323 512 C 281.33 523.44 248.62 557.16 216 582 C 216 582 224.032 582.048 224 582 C 252.67 553.11 286.97 530.66 324 516 C 312.28 567.44 381.84 565.87 414 579 C 393.62 622.86 467.97 685.58 487.22 628.22 C 499.13 588.08 554.48 558.67 591.92 587.08 C 626.86 605.58 657.66 636.7 681 669 C 695.82 657.35 706.07 640.79 706 622 C 670.93 586.44 642.19 520.21 680 479 C 689.59 478.15 692.85 462.68 694 454 C 709.24 439.4 694.18 405.26 676 394 C 671.93 371.41 641.03 360.73 621 354 C 622.47 298.11 560.16 280.11 543.78 235.22 C 522.86 192.69 503.35 148.74 468.75 114.25 C 427.16 74.16 367.82 74.62 312 76 Z"/>
  <path fill="#817B88" stroke="None" d="M486 239c2.96 2.21 5.9 5.02 8 8-5.66-3.36-11.21-8.44-16-13-1.53-.25-2.18-2.55-4-2h-3c-4.09 3.65-11.5 2.06-17 3 36.15 17.12-5.51 14.88-24 20 9.74 2.28 21.09 1.75 31.74 2.25 1.49 7.88-13.82 7.66-17.74 13.75 4.1 2.23 10.4.15 15 2-15.2 7.25-22.91-7.96-5-11-8.87-4.88-29.75 5.91-32-8-88.52 5.29-166.26 84.02-260 44-7.68-1.96-14.91-5.31-22-9-3.59-2.86-8.14-3.84-12-5-5.2.39-10.05-.34-15-1 96.86 3.94 182.22-56.47 279-43 23.05 4.2 42.39 10.68 66 5-4.37-2.81-19.23-10.81-7-14-53.75-51.52-140.56-41.55-204.32-15.32C181.29 248.79 109.06 269.32 36 247c21.45 19.31 45.37 36.04 70.92 49.08C200.78 358.67 295.97 283.32 391 273c25.73-.61 94.52-5.46 64 35-2.22-7.79 4.65-16.4 4-25-18.17 8.62-31.97 27.03-44 43 17.33 25.92 3.13 63.42-10 89 7.82-1.6 16.16-1.08 24 0 4.6.46 6.3-5.36 10-7 2.09-12.83 1.96-27.29 6-40-1.95-.89-4.07-1.83-5-4 15.18-9.77 16.48-50.13 41.3-62.7 34.63-9.93 10.77 52.03 8.7 71.7 38.48-18.13 83.09-22.85 126-16 3.26-54.98-57.95-72.83-75.08-115.92-20.5-41.34-38.34-85.13-72.17-118.83C431.04 80.41 373.4 79.77 320 81c-4.17-.64-9.66 1.29-13-1-93.22 9.45-177.59-27.62-263-41 47.49 60.42 104.71 126.63 183.93 137.07C311.72 203.55 419.68 167.61 486 239Z"/>
  <path fill="#818181" stroke="None" d="M259 75c-3.34-2.29-8.83-.36-13-1 3.34 2.29 8.83.36 13 1Z"/>
  <path fill="#6B6B6B" stroke="None" d="M312 76c-3.34-2.29-8.83-.36-13-1 3.34 2.29 8.83.36 13 1Z"/>
  <path fill="#413C47" stroke="None" d="M320 81c-3.34-2.29-8.83-.36-13-1 3.34 2.29 8.83.36 13 1Z"/>
  <path fill="#8D6E7F" stroke="None" d="M127 104c-.23-.16 0-1 0-1-3.3-2.55-5.97-5.75-10-7 .26-1.39 2.05-.78 3-1-2.6-.86-4.72-4.34-8-4-3.1 8.4 13.58 5.97 8 13 2.57-1.2 4.34-.21 7 0Z"/>
  <path fill="#7D4558" stroke="None" d="M127 103c1.25.3 1.71 1.83 3 2-1.11-2.41-3.96-3.62-5-6 4.06 1.08 8.07 2.4 12 4 .14.01.65-.96 1-1-5.6-2.35-11.74-5.8-18-7-.95.22-2.74-.39-3 1 4.03 1.25 6.7 4.45 10 7Z"/>
  <path fill="#BE3B56" stroke="None" d="M130 105c6.74 5.58 13.76 11.22 20 17 38.53 28.01 84.41 42.55 132 46 4.65.34 10.05.43 14 2 26.73.72 53 3.31 80 3 5.16.65 11.66-1.31 16 1 34.9.77 66.42 14.08 97 29-30.33-35.36-73.3-64.99-119-75-74.67-20.01-159.07-2.48-233-25-3.93-1.6-7.94-2.92-12-4 1.04 2.38 3.89 3.59 5 6Z"/>
  <path fill="#230A0E" stroke="None" d="M137 103c73.93 22.52 158.33 4.99 233 25 .74.18 1.91-.05 2-1-42.68-10.24-86.64-15.39-132-15-4.42 2.25-10.82.39-16 1-29.57-.07-58.53-2.83-86-11-.35.04-.86 1.01-1 1Z"/>
  <path fill="#4C1A23" stroke="None" d="M127 104c6.87 5.32 12.1 13.27 20 17 .68-1.89 1.86 1.21 3 1-6.24-5.78-13.26-11.42-20-17-1.29-.17-1.75-1.7-3-2 0 0-.23.84 0 1Z"/>
  <path fill="#40434A" stroke="None" d="M224 113c5.18-.61 11.58 1.25 16-1-5.18.61-11.58-1.25-16 1Z"/>
  <path fill="#120507" stroke="None" d="M147 121c100.58 93.98 260.43 19.09 366 102-4.45-7.55-12.53-13.74-19-20-3.8-2.38-6.24-6.68-10-9 3.68 4.96 9.47 9.06 12 14-2.4-1.49-5.81-2.05-7-5-30.58-14.92-62.1-28.23-97-29-5.16-.65-11.66 1.31-16-1-27 .31-53.27-2.28-80-3-4.77.09-10.09-.2-14-2-47.59-3.45-93.47-17.99-132-46-1.14.21-2.32-2.89-3-1Z"/>
  <path fill="#4F1A27" stroke="None" d="M370 128c45.7 10.01 88.67 39.64 119 75 1.19 2.95 4.6 3.51 7 5-2.53-4.94-8.32-9.04-12-14-3.8-3.75-8.79-7.43-12-12-29.52-25.24-62.1-47.03-100-55-.09.95-1.26 1.18-2 1Z"/>
  <path fill="#5F1F28" stroke="None" d="M296 170c-3.95-1.57-9.35-1.66-14-2 3.91 1.8 9.23 2.09 14 2Z"/>
  <path fill="#571120" stroke="None" d="M392 174c-4.34-2.31-10.84-.35-16-1 4.34 2.31 10.84.35 16 1Z"/>
  <path fill="#51464D" stroke="None" d="M484 194c3.76 2.32 6.2 6.62 10 9-6.36-7.96-14.56-14.15-22-21 3.21 4.57 8.2 8.25 12 12Z"/>
  <path fill="#292331" stroke="None" d="M486 239c-2.15.87-5.1-4.19-8-5 4.79 4.56 10.34 9.64 16 13-2.1-2.98-5.04-5.79-8-8Z"/>
  <path fill="#1A080B" stroke="None" d="M128 284c6.09-2.29 14.16-.37 21-1 81.86-.57 152-49.94 235-43h8c-96.78-13.47-182.14 46.94-279 43 4.95.66 9.8 1.39 15 1Z"/>
  <path fill="#BD3B55" stroke="None" d="M149 283c-2.1 2.08-6.15.5-9 1-1.84 1.54.63 2.52 1 4 7.19 3.73 15.77 5.93 23 9 12.24.8 23.28 6.16 36 5 16.21.49 32.03-.51 48-1 62.4-5.58 111.33-55.24 176-51-12.91-4.6-26.68-8.02-40-10-83-6.94-153.14 42.43-235 43Z"/>
  <path fill="#0E0711" stroke="None" d="M469 297c1.66-.54 2.33-2.56 4-3 8.28-12.69 18.82-25.75 31.92-34.08 22.51-4.63 6.95 34.75 12.08 48.08 1.57-16.01 15.24-60.04-12.92-53.92-17.01 8.73-27.51 26.54-35.08 42.92Z"/>
  <path fill="#3E1020" stroke="None" d="M128 284h12c2.85-.5 6.9 1.08 9-1-6.84.63-14.91-1.29-21 1Z"/>
  <path fill="#84485B" stroke="None" d="M140 289c.15.01.67-1.01 1-1-.37-1.48-2.84-2.46-1-4h-12c3.86 1.16 8.41 2.14 12 5Z"/>
  <path fill="#35141B" stroke="None" d="M140 289c7.09 3.69 14.32 7.04 22 9 .09-.95 1.26-1.18 2-1-7.23-3.07-15.81-5.27-23-9-.33-.01-.85 1.01-1 1Z"/>
  <path fill="#38323E" stroke="None" d="M469 297c-1.62 1.34-2.6 3.89-3 6 2.91-2.3 4.74-5.95 7-9-1.67.44-2.34 2.46-4 3Z"/>
  <path fill="#883345" stroke="None" d="M200 302c1.7 2.19 5.48.44 8 1h26c4.69-.28 9.97-.5 14-2-15.97.49-31.79 1.49-48 1Z"/>
  <path fill="#400712" stroke="None" d="M234 303h-26c7.52 1.68 18.41 1.65 26 0Z"/>
  <path fill="#807A88" stroke="None" d="M489 361c.16-.23 1 0 1 0 1.34-14.92 15.21-72.68-12.25-50.25-15.18 15.68-22.89 36.1-28.75 56.25 13.47 5.39 29.12-.8 40-6Z"/>
  <path fill="#7F7A87" stroke="None" d="M413 385c.35-18.18 12.76-42.52 0-57-11.86 18.63-19.91 39.48-24 61 8.18 2.26 16.82.08 24-4Z"/>
  <path fill="#646164" stroke="None" d="M584 358h14c-3.53-1.71-10.4-1.59-14 0Z"/>
  <path fill="#D6D6D6" stroke="None" d="M525 451c3.27-1.58 9.8-1.71 13 0-2.94-.67-5.18 1.09-8 1-26.8 2.6-52.44 9.7-77.93 17.07C435.6 479.58 389.93 479.52 402 506c47.82-19.97 103.24-24.36 155-15-51.29-2.23-105.18 1.11-154 16 5.89 15.29 23.25 23.57 39 23h14c-.55 1.01-1.98 1.44-3 2-26.86 5.69-58.37-10.17-59-38-3.47-.46-5.74 2.82-9 3 7.84-3.82 9.3-11.61 9-20-7.26 2.62-13.13 8.74-20 12 24.8-13.49 27.63-41.55 47-61-7.26 1.94-14.03 5.28-21 8-.55 1.01-1.98 1.44-3 2-10.26 12.75-22.91 24.86-31 39-1.02 3.11-2.15 7.09-5 9-1.42-4.28-3.22-8.47-4-13-.83-6.31-2.18-12.45-2-19-14.85 6.68-34.78 18.16-32 38 4.17.64 9.66-1.29 13 1 3.51.55 8.24-1.16 11 1-8.24-.62-15.97.83-24 1-1.07 3.77 1.9 4.65 5 4-6.52 1.42-1.9 7.08 0 11 13.75-4.25 28.94-10.41 43-9-10.47 1.13-19.93 5.58-30 8-.14.05 0 1 0 1 20.53-1.83 38.19 7.4 57 12-22.21 5.44-53.92-21.83-71.22.78C323.5 548 353.54 561.95 375 562c-2.3-3.11-5.58-5.96-6-10-.3-.21-.73-.85-1-1-5.74-2.65-12.92-2.47-18-6 27.84 7.45 59.34 6.82 86-4-6.53 20.19 6.72 38.54 15.08 55.92 15.94 24.64-24.43 32.83-31.08 10.08.62 21.58 28.12 48.21 51.3 37.3 29-18.62-8.96-46.9 1.7-72.3 3.49 12.91 4.07 27.78 11 40 31.17-30.51 69.67-50.26 107.77-69.23 30.97-26.06 86.45-40.53 88.23-87.77 3.01 3.76 1.99 10.2 5 14 5.49-8.86 4.26-20.04 3-30 2.73 1.35 4.24 4.58 7 6 3.4-25.02-14.96-45.37-35-57 2.46-2.06 6.56 1.22 10 0-18.52-19.77-44.31-32.24-72-30h-14c-57.98-2.11-110.57 23.41-153 61 8.78-.58 21.21-4.42 31 0-31.88-3-53.29 19.66-61 49 43.81-24 93.74-39.54 143-43-28.04 6.03-55.78 13.15-82.98 22.02-20.63 11.67-61.87 12.01-63.02 40.98 38.91-21.78 81.62-35.97 127-37Z"/>
  <path fill="#F1F1F2" stroke="None" d="M490 361s-.84-.23-1 0c-7.75 10.42-21.7 14.67-34 12 .22 7.88.05 15.71-2 23 11.95-11.92 38.12-14.14 37-35Z"/>
  <path fill="#F0EFF0" stroke="None" d="M412 388c-4.37 4.22-9.86 7.07-16 7-.61 8.19-1.61 16.29-4 24 3.89-1.42 7.63-3.41 12-3 2.55-9.34 6.16-18.46 8-28Z"/>
  <path fill="#3F3C42" stroke="None" d="M429 415c.09.89-.87 1.2-1 2 1.9 1.11-2.08 2.48-2 4 4.89-3.92 8.29-7.65 13-13-3.7 1.64-5.4 7.46-10 7Z"/>
  <path fill="#7E7883" stroke="None" d="M397 438c1.02-.56 2.45-.99 3-2 6.92-7.69 20.01-5.88 26-15-.08-1.52 3.9-2.89 2-4-18.62 3-39.48 2.73-54 15 6.37 1.63 19.7-3.06 23 6Z"/>
  <path fill="#B83D56" stroke="None" d="M362 447c-4.54 11.06-4.07 26.07 0 37 1.56-4.39 2.98-9.47 6-13 4.28-12.93 14.57-22.82 24-33-10.74-2.73-23.04.06-30 9Z"/>
  <path fill="#541B25" stroke="None" d="M357 473c.78 4.53 2.58 8.72 4 13 2.85-1.91 3.98-5.89 5-9-.16-2.29 2.14-3.75 2-6-3.02 3.53-4.44 8.61-6 13-4.07-10.93-4.54-25.94 0-37-7.52 6.12-1.66 18.32-5 26Z"/>
  <path fill="#6E6E6E" stroke="None" d="M525 451c1.56.34 4.17-.75 5 1 2.82.09 5.06-1.67 8-1-3.2-1.71-9.73-1.58-13 0Z"/>
  <path fill="#6B6B6B" stroke="None" d="M336 493c-3.34-2.29-8.83-.36-13-1 3.34 2.29 8.83.36 13 1Z"/>
  <path fill="#817B88" stroke="None" d="M658 500c-32.62 29.43-69.6 52.86-110 68 55.83 7.03 98.92 50.8 135 93 28.9-21.31 10.91-49.23-7.08-69.92C661.65 563.44 654.1 531.93 658 500Z"/>
  <path fill="#4E4E4E" stroke="None" d="M341 510s-.14-.95 0-1c-3.63.99-9.51 1.77-11 5 3.7-1.1 7.92-2 11-4Z"/>
  <path fill="#818181" stroke="None" d="M453 532c1.02-.56 2.45-.99 3-2h-14c2.54 2.81 8.39-.77 11 2Z"/>
  <path fill="#A64C52" stroke="None" d="M404 553c-5.92 1.63-15.15 1.69-21 0-.5 0-1.5.05-2 0-2.08.08-5.28-.69-6 2 3.67 1.52 6.69 4.85 9 8 10.02 5.72 20.77 9.63 32 12 .49.07 1.52.1 2 0 3.99-4.15 9.08-10.93 11-17v-9c-8.55.59-16.16 4.69-25 4Z"/>
  <path fill="#663538" stroke="None" d="M369 552c5.17 3.63 10.37 6.43 15 11-2.31-3.15-5.33-6.48-9-8 .72-2.69 3.92-1.92 6-2-3.62-1.57-8.65-1.8-13-2 .27.15.7.79 1 1Z"/>
  <path fill="#57282A" stroke="None" d="M404 553h-21c5.85 1.69 15.08 1.63 21 0Z"/>
  <path fill="#812C38" stroke="None" d="M418 575c2.89 5.45-1.11 11.17 0 17-1.69 9.96 5.85 17.28 13 23 4.29 2.01 9.13 2.19 14 2 14.98-18.12-17.44-38.22-16-59-1.92 6.07-7.01 12.85-11 17Z"/>
  <path fill="#270407" stroke="None" d="M418 592c-1.11-5.83 2.89-11.55 0-17-.48.1-1.51.07-2 0 5.49 3.97-1.73 12.19 2 17Z"/>
  <path fill="#3D0E13" stroke="None" d="M445 617c-4.87.19-9.71.01-14-2 2.62 4.32 10.25 3.61 14 2Z"/>
</svg>
